<svg version="1.1" viewBox="0 0 32 32" xmlns="http://www.w3.org/2000/svg">
 <path d="m12.383 7.4259c-5.5631 0.1057-11.264 1.362-12.365 6.7337 0.01845 0.26723-0.07117 0.97964 0.03389 1.43 2.561 10.978 20.443 11.743 25.295 3.1554l-0.0052 0.0241c1.3246 2.7715 3.7194 3.6734 6.1792 4.329 0.35839 0.10718 0.41746-0.18088 0.29669-0.35971-0.68642-1.1279-2.1734-3.8854-2.2923-6.7771-0.1253-3.0497 1.6768-5.8422 2.37-6.798 0.11837-0.2102 0.20873-0.36138-0.15099-0.43921-0.50639-0.0446-1.5146 0.0282-3.2388 0.76116-1.9956 0.84836-2.8308 3.1505-2.8308 3.1505-2.0118-3.3576-7.7289-5.3154-13.292-5.2097zm-6.7313 3.6306c2.6468-0.0941 2.9844 5.1038-0.06325 5.1047-2.9333 1e-3 -3.002-4.9958 0.06325-5.1047z" fill="currentColor"/>
</svg>
