<svg version="1.1" viewBox="0 0 128 128" xmlns="http://www.w3.org/2000/svg">
 <path d="m63.674 4.0002a60.002 60.002 0 0 0-59.674 60.002 60.002 60.002 0 0 0 59.997 59.997 60.002 60.002 0 0 0 60.003-59.997 60.002 60.002 0 0 0-60.003-60.002 60.002 60.002 0 0 0-0.32298 0zm-25.128 17.514 11.018 4.2196s10.365-1.5275 15.233-1.5433c4.8673-0.01574 13.833 1.3125 13.833 1.3125l11.013-3.9889-1.4048 14.299s7.1921 17.172 7.2651 26.251c0.0966 12.018-0.27246 18.757-4.6862 24.374-4.4137 5.6171-10.125 6.0583-16.407 7.5009-0.44531 0.10212-0.94896 0.15566-1.41 0.24597v3.9735s3.4809 0.28435 4.4555 1.0562 1.2869 2.5789 1.2869 2.5789c-0.04248 2.2666-1.8807 2.1125-2.5738 2.1072-0.69307-5e-3 -1.0328-2.842-1.9944-2.6968-0.96156 0.14517-0.82033 2.3431-0.82033 2.3431s0.05988 1.7392-0.70242 2.3482c-0.76222 0.60896-2.6357 0.8484-3.3993 0.23074-0.76361-0.61757-0.35378-2.461-0.35378-2.461s0.42985-1.723-0.46656-1.9893c-0.89641-0.26632-1.45 2.3282-2.5789 2.461-0.67402 0.0793-1.421-0.20501-1.9945-0.63064-0.51635 0.28545-1.1237 0.45345-1.6663 0.38966-1.129-0.13283-1.6825-2.7273-2.5789-2.461-0.89638 0.26632-0.46655 1.9945-0.46655 1.9945s0.40982 1.8434-0.35378 2.461c-0.76358 0.61778-2.6319 0.37307-3.3942-0.236-0.76217-0.60896-0.70753-2.3431-0.70753-2.3431s0.14123-2.1979-0.82034-2.3431c-0.9616-0.14517-1.2962 2.6865-1.9893 2.6917-0.69307 5e-3 -2.5364 0.15935-2.5789-2.1072 0 0 0.31236-1.8071 1.2869-2.5789 0.97457-0.77185 4.4555-1.0562 4.4555-1.0562v-3.3018c-0.42116-0.069-0.85207-0.12312-1.2613-0.20502-6.3894-1.2802-12.433-1.7871-16.878-7.5009-4.4452-5.7138-4.7769-13.625-4.2145-24.61 0.56245-10.985 7.9675-25.784 7.9675-25.784zm40.314 15.704a5.9767 5.508 0 0 0-5.9731 5.5116 5.9767 5.508 0 0 0 5.9731 5.5065 5.9767 5.508 0 0 0 5.9782-5.5065 5.9767 5.508 0 0 0-5.9782-5.5116zm-29.414 0.11786a5.9767 5.508 0 0 0-5.9782 5.5065 5.9767 5.508 0 0 0 5.9782 5.5116 5.9767 5.508 0 0 0 5.9782-5.5116 5.9767 5.508 0 0 0-5.9782-5.5065zm14.884 1.1741-6.5627 7.383 6.3269 4.6862 6.5627-4.3375zm-5.3886 28.942 5.3886 7.2702 5.8603-7.0344zm14.746 0.24098 5.3937 7.2651 5.8603-7.0292zm-29.178 0.11786 5.3886 7.2651 5.8603-7.0293zm22.031 9.3723 5.3937 7.2702 5.8552-7.0344zm-15.002 0.23573 5.3937 7.2651 5.8603-7.0292zm17.227 17.432c-3.1158 0.34284-6.37 0.44876-9.5005 0.24597l-0.11784 2.9378c0 5e-5 3.6548 0.87612 4.5682 1.8765 0.17483 0.19163 0.2649 0.30117 0.41533 0.45632 0.07896-0.0827 0.1158-0.12837 0.20003-0.22051 0.91342-1.0004 4.5682-1.8714 4.5682-1.8714z" fill="currentColor"/>
</svg>
