<svg version="1.1" viewBox="0 0 32 32" xmlns="http://www.w3.org/2000/svg">
 <path transform="matrix(.61461 0 0 .61461 -62.67 -226.77)" d="m128 368.97c-4.7583 1.1e-4 -8.239 0.78614-13.475 4.7129-5.2357 3.9267-5.4981 9.1616-5.498 11.256 0 2.0943 0.26087 7.8526 3.6641 11.779 2.5819 2.931 5.7204 3.5853 2.0957 4.4512-3.665 0.52357-5.7598 3.4024-5.7598 3.4024 0 0-1.1777 1.702-1.1777 6.1523 0 4.4503 5.3652 7.4609 5.3652 7.4609s1.834 4.5e-4 1.5723-1.832c-0.26179-1.8325-1.5709-2.3565 0.78516-6.0215 1.7016-2.2252 2.6172-1.5703 2.6172-1.5703s0.78522 0.78483 0.52344 2.0938c-0.91624 1.7016-0.5227 6.677 4.4512 9.8184 2.7487 0.78536 3.4026 0.39128 2.3555-2.2266-0.26178-2.8796-0.78496-8.6387 2.4805-8.6387 3.2654-1e-5 2.7403 5.7591 2.4785 8.6387-1.0471 2.6178-0.39131 3.0119 2.3574 2.2266 4.9739-3.1414 5.3655-8.1168 4.4492-9.8184-0.26178-1.3089 0.52344-2.0938 0.52343-2.0938 0 0 0.9156-0.65484 2.6172 1.5703 2.356 3.665 1.0489 4.189 0.78711 6.0215-0.26178 1.8325 1.5703 1.832 1.5703 1.832s5.3652-3.0106 5.3652-7.4609c0-4.4503-1.1777-6.1523-1.1777-6.1523s-2.0928-2.8788-5.7578-3.4024c-3.6247-0.86591-0.48812-1.5202 2.0938-4.4512 3.4032-3.9268 3.6641-9.685 3.6641-11.779 0-2.0943-0.26042-7.3291-5.4961-11.256-5.2357-3.9268-8.7163-4.713-13.475-4.7129zm-6.6523 27.928a2.9397 2.9397 0 0 1 4e-3 0 2.9397 2.9397 0 0 1 2.9395 2.9394 2.9397 2.9397 0 0 1-2.9395 2.9394 2.9397 2.9397 0 0 1-2.9394-2.9394 2.9397 2.9397 0 0 1 2.9356-2.9394zm13.074 0a2.9397 2.9397 0 0 1 4e-3 0 2.9397 2.9397 0 0 1 2.9395 2.9394 2.9397 2.9397 0 0 1-2.9395 2.9394 2.9397 2.9397 0 0 1-2.9394-2.9394 2.9397 2.9397 0 0 1 2.9356-2.9394z" fill="currentColor"/>
</svg>
