<?xml version="1.0" encoding="UTF-8" standalone="no"?>
<svg
   xmlns:dc="http://purl.org/dc/elements/1.1/"
   xmlns:cc="http://creativecommons.org/ns#"
   xmlns:rdf="http://www.w3.org/1999/02/22-rdf-syntax-ns#"
   xmlns:svg="http://www.w3.org/2000/svg"
   xmlns="http://www.w3.org/2000/svg"
   xmlns:sodipodi="http://sodipodi.sourceforge.net/DTD/sodipodi-0.dtd"
   xmlns:inkscape="http://www.inkscape.org/namespaces/inkscape"
   inkscape:export-ydpi="384"
   inkscape:export-xdpi="384"
   inkscape:export-filename="/Users/liuli/Downloads/critterpedia-plus-logo.png"
   inkscape:version="1.0 (4035a4f, 2020-05-01)"
   sodipodi:docname="critterpedia-icon.svg"
   id="svg2616"
   viewBox="0 0 128 128"
   version="1.1">
  <metadata
     id="metadata2622">
    <rdf:RDF>
      <cc:Work
         rdf:about="">
        <dc:format>image/svg+xml</dc:format>
        <dc:type
           rdf:resource="http://purl.org/dc/dcmitype/StillImage" />
      </cc:Work>
    </rdf:RDF>
  </metadata>
  <defs
     id="defs2620">
    <filter
       height="1.0000426"
       y="-2.1265196e-05"
       width="1.0001018"
       x="-5.0912688e-05"
       id="filter1794-4"
       style="color-interpolation-filters:sRGB"
       inkscape:collect="always">
      <feGaussianBlur
         id="feGaussianBlur1796-1"
         stdDeviation="0.00046140656"
         inkscape:collect="always" />
    </filter>
  </defs>
  <sodipodi:namedview
     inkscape:current-layer="g2614"
     inkscape:window-maximized="0"
     inkscape:window-y="23"
     inkscape:window-x="0"
     inkscape:cy="47.693055"
     inkscape:cx="22.48513"
     inkscape:zoom="2.7008691"
     showgrid="false"
     id="namedview2618"
     inkscape:window-height="970"
     inkscape:window-width="1622"
     inkscape:pageshadow="2"
     inkscape:pageopacity="0"
     guidetolerance="10"
     gridtolerance="10"
     objecttolerance="10"
     borderopacity="1"
     bordercolor="#666666"
     pagecolor="#ffffff" />
  <g
     transform="translate(-1.8512559,-0.74050237)"
     id="g2614">
    <rect
       fill="#f1cd75"
       ry="48.092999"
       rx="48.900002"
       height="128"
       width="128"
       y="3.3925001e-08"
       x="8.6175999e-07"
       id="bg-light" />
    <rect
       fill="#e9b128"
       ry="20.007"
       rx="20.341999"
       height="53.249001"
       width="53.249001"
       y="37.375999"
       x="37.375999"
       id="bg-dark" />
    <g
       transform="matrix(0.40156906,0,0,0.40156906,-25.360809,-83.337171)"
       id="insect">
      <path
         id="path2586"
         fill="#f8f4e3"
         d="m 197.4,272.79 c -0.4529,0.20557 -0.91562,0.34504 -1.3633,0.57812 -4.182,2.1774 -12.188,5.095 -20.844,13.467 0.0523,-0.5176 0.14311,-1.0945 0.20117,-1.6289 l -12.541,17.65 -11.705,-16.223 c 0.0214,0.0643 0.0529,0.13717 0.0742,0.20117 -4.076,-4.9942 -8.7649,-9.3898 -15.225,-12.436 l 1.1406,0.95703 c 0,0 -1.0929,0.17801 -2.9121,0.61328 -1.8192,0.43527 -4.3638,1.1275 -7.2656,2.1543 -2.9018,1.0268 -6.1604,2.3876 -9.4082,4.1621 -1.6239,0.88728 -3.2461,1.8789 -4.8184,2.9824 -1.5723,1.1035 -3.0949,2.3189 -4.5234,3.6582 -1.4286,1.3393 -2.6797,2.8184 -3.7734,4.3809 -1.0937,1.5625 -2.0304,3.2087 -2.834,4.8828 -0.80357,1.6741 -1.4732,3.3767 -2.0312,5.0508 -0.55804,1.6741 -1.0042,3.3203 -1.3613,4.8828 -0.71429,3.125 -1.0714,5.9149 -1.25,7.9238 -0.1165,1.3106 -0.10311,1.5897 -0.11719,2.1113 5.4939,13.552 16.277,23.414 29.912,27.518 -5.4076,8.5386 -3.5791,20.111 0.96484,24.953 6.7336,7.1762 15.805,7.6554 21.348,4.748 8.8617,-4.2404 13.91,-21.984 13.91,-21.984 0,0 6.2853,14.411 12.4,20.113 9.3524,5.0397 21.913,3.9921 26.73,-1.752 7.343,-8.7554 3.3618,-20.23 -1.0215,-27.471 13.215,-5.8553 24.411,-7.8434 30.98,-31.58 -0.0488,-0.12446 -1.4041,-3.5969 -3.9922,-8.5977 -1.317,-2.5446 -2.9344,-5.4459 -4.8262,-8.4258 -1.8918,-2.9799 -4.058,-6.0393 -6.4688,-8.8965 -1.2054,-1.4286 -2.4443,-2.6953 -3.6895,-3.8184 -1.2451,-1.123 -2.4961,-2.1013 -3.7266,-2.9551 -2.4609,-1.7076 -4.8382,-2.9135 -6.9141,-3.7617 -2.0759,-0.8482 -3.8499,-1.3401 -5.1055,-1.6191 -1.2556,-0.279 -1.9922,-0.3457 -1.9922,-0.3457 z" />
      <g
         id="g2602"
         fill="#1a1a1a">
        <path
           id="path2588"
           d="m 197.4,272.79 -2.0469,1.4941 c 0,0 0.73661,0.0667 1.9922,0.3457 1.2556,0.27902 3.0296,0.77093 5.1055,1.6191 2.0759,0.84817 4.4531,2.0541 6.9141,3.7617 1.2305,0.85379 2.4814,1.832 3.7266,2.9551 1.2451,1.123 2.4841,2.3898 3.6895,3.8184 2.4107,2.8571 4.577,5.9166 6.4688,8.8965 1.8917,2.9799 3.5092,5.8811 4.8262,8.4258 2.5881,5.0008 3.9434,8.4732 3.9922,8.5977 0.3166,-1.1439 0.67809,-2.0791 0.97265,-3.3281 2.6528,-11.249 -1.3464,-24.404 -8.1699,-32.438 -5.5168,-6.4954 -17.094,-8.8584 -27.471,-4.1484 z" />
        <path
           id="path2590"
           d="m 96.848,318.16 c 0.01408,-0.52163 6.91e-4,-0.80074 0.11719,-2.1113 0.17857,-2.0089 0.53571,-4.7988 1.25,-7.9238 0.35714,-1.5625 0.80329,-3.2087 1.3613,-4.8828 0.55804,-1.6741 1.2277,-3.3767 2.0312,-5.0508 0.80357,-1.6741 1.7402,-3.3203 2.834,-4.8828 1.0938,-1.5625 2.3449,-3.0416 3.7734,-4.3809 1.4286,-1.3393 2.9512,-2.5547 4.5234,-3.6582 1.5723,-1.1035 3.1945,-2.0951 4.8184,-2.9824 3.2478,-1.7746 6.5064,-3.1353 9.4082,-4.1621 2.9018,-1.0268 5.4464,-1.719 7.2656,-2.1543 1.8192,-0.4353 2.9121,-0.61328 2.9121,-0.61328 l -1.1406,-0.95703 c -1.3024,-0.61407 -2.566,-1.2586 -4.0332,-1.748 -7.0687,-2.3608 -22.449,-3.4774 -29.557,4.0723 -9.4065,9.9911 -9.4254,30.598 -6.6582,38.74 0.31651,0.93129 0.7293,1.7964 1.0938,2.6953 z" />
        <path
           id="path2592"
           d="m 151.15,286.63 11.705,16.223 12.541,-17.65 c 0.80705,-7.4291 5.4999,-15.472 10.129,-19.245 4.2964,-3.5016 13.948,-0.66568 14.679,-6.4078 0.731,-5.74212 -13.554,-6.4581 -21.275,-1.5586 -7.721,4.8995 -13.962,20.765 -16.286,32.109 -2.3412,-10.771 -10.638,-29.23 -17.893,-33.931 -3.8954,-2.524 -19.938,-5.1316 -19.956,3.0678 3.7723,6.4618 9.1414,2.6492 15.943,8.5859 5.9216,4.1153 8.2195,12.208 10.412,18.807 z" />
        <ellipse
           id="ellipse2594"
           ry="8.5713997"
           rx="8.0356998"
           cy="305"
           cx="124.82" />
        <ellipse
           id="ellipse2596"
           ry="6.0714002"
           rx="5.8929"
           cy="328.20999"
           cx="132.32001" />
        <ellipse
           id="ellipse2598"
           ry="8.75"
           rx="8.2143002"
           cy="303.04001"
           cx="201.78999" />
        <circle
           id="circle2600"
           r="6.0714002"
           cy="327.5"
           cx="194.64" />
      </g>
    </g>
    <g
       transform="matrix(0.39487163,0,0,0.39487163,-26.923894,-72.885454)"
       id="fish">
      <path
         id="path2605"
         fill="#5caeb4"
         d="m 206.32,370.73 c 0,0 21.718,-4.0406 35.608,-4.2931 13.89,-0.25254 20.456,4.2931 24.749,9.849 4.293,5.5559 6.566,14.9 -2.7779,21.213 -9.3439,6.3134 -57.579,-26.769 -57.579,-26.769 z" />
      <path
         id="path2607"
         fill="#5caeb4"
         d="m 213.9,462.65 c 0,0 17.425,6.0609 29.8,3.5355 12.375,-2.5254 20.708,-4.7982 25.254,-10.607 4.5457,-5.8084 7.0711,-12.879 -4.0406,-16.668 -11.112,-3.7881 -51.013,23.739 -51.013,23.739 z" />
      <path
         id="path2609"
         fill="#503b30"
         d="m 198.32,370.09 c -25.546,0.50508 -47.266,8.7572 -64.737,36.816 -2.1747,3.4413 -1.6411,10.512 -1.0825,12.907 12.608,52.314 99.866,58.401 134.25,14.505 l -0.0277,0.12824 c 2.1536,-3.9211 5.1552,-3.2104 7.303,-1.6191 16.603,12.3 30.336,14.421 33.888,12.264 4.6836,-3.2182 8.2807,-9.2956 5.1131,-14.287 -3.65,-5.9974 -6.6783,-5.6432 -7.138,-12.298 -0.43269,-6.2636 1.5923,-7.5791 5.2784,-12.661 2.3972,-2.3804 5.6556,-15.811 -5.3486,-16.478 -15.758,1.5429 -23.496,9.3635 -34.037,15.278 -4.0676,4.6603 -6.8235,-1.0446 -6.8235,-1.0446 -16.69,-21.858 -33.648,-33.005 -66.638,-33.511 z m -36.298,23.346 c 14.074,-0.50008 15.869,27.139 -0.33635,27.144 -15.597,0.006 -15.963,-26.564 0.33635,-27.144 z" />
      <path
         id="path2611"
         fill="#5caeb4"
         d="m 182.84,426.03 c 6.506,-5.2602 21.466,-17.425 28.032,-4.7982 6.566,12.627 -7.8287,28.032 -11.617,29.547 -3.7881,1.5152 -21.718,3.5355 -24.496,-4.5457 -0.50508,-5.8084 5.1107,-1.5584 8.0812,-20.203 z" />
    </g>
  </g>
  <path
     id="path1776-9"
     style="fill:#503b30;fill-opacity:1;stroke:none;stroke-width:0.245669;stroke-linecap:butt;stroke-linejoin:miter;stroke-miterlimit:4;stroke-dasharray:none;stroke-opacity:1;filter:url(#filter1794-4)"
     d="m 128.00098,368.96828 c -4.75834,1.1e-4 -8.23895,0.78614 -13.47461,4.7129 -5.23567,3.92674 -5.49806,9.16159 -5.49804,11.25585 0,2.09427 0.26087,7.85255 3.66406,11.7793 2.58187,2.93095 5.72037,3.58526 2.0957,4.45117 -3.66496,0.52357 -5.75977,3.40235 -5.75976,3.40235 0,0 -1.17774,1.70202 -1.17774,6.15234 0,4.45031 5.36524,7.46094 5.36524,7.46094 0,0 1.83404,4.5e-4 1.57226,-1.83203 -0.26179,-1.83248 -1.57088,-2.35652 0.78516,-6.02149 1.70159,-2.22515 2.61718,-1.57031 2.61718,-1.57031 0,0 0.78522,0.78483 0.52344,2.09375 -0.91624,1.70159 -0.5227,6.67696 4.45117,9.81836 2.74873,0.78536 3.40261,0.39128 2.35547,-2.22656 -0.26178,-2.87961 -0.78496,-8.63867 2.48047,-8.63867 3.26542,-10e-6 2.7403,5.75906 2.47852,8.63867 -1.04714,2.61784 -0.39131,3.01192 2.35742,2.22656 4.97387,-3.1414 5.36546,-8.11677 4.44922,-9.81836 -0.26178,-1.30892 0.52344,-2.09375 0.52343,-2.09375 0,0 0.9156,-0.65484 2.61719,1.57031 2.35604,3.66497 1.0489,4.18901 0.78711,6.02149 -0.26178,1.83248 1.57031,1.83203 1.57031,1.83203 0,0 5.36524,-3.01063 5.36524,-7.46094 0,-4.45032 -1.17774,-6.15234 -1.17774,-6.15234 0,0 -2.09285,-2.87878 -5.75781,-3.40235 -3.62467,-0.86591 -0.48812,-1.52022 2.09375,-4.45117 3.40319,-3.92675 3.66406,-9.68503 3.66406,-11.7793 0,-2.09426 -0.26042,-7.32912 -5.49609,-11.25585 -5.23566,-3.92676 -8.71627,-4.71301 -13.47461,-4.7129 z m -6.65234,27.92774 a 2.9396853,2.9396853 0 0 1 0.004,0 2.9396853,2.9396853 0 0 1 2.93946,2.93945 2.9396853,2.9396853 0 0 1 -2.93946,2.93945 2.9396853,2.9396853 0 0 1 -2.93945,-2.93945 2.9396853,2.9396853 0 0 1 2.93555,-2.93945 z m 13.07422,0 a 2.9396853,2.9396853 0 0 1 0.004,0 2.9396853,2.9396853 0 0 1 2.93946,2.93945 2.9396853,2.9396853 0 0 1 -2.93946,2.93945 2.9396853,2.9396853 0 0 1 -2.93945,-2.93945 2.9396853,2.9396853 0 0 1 2.93555,-2.93945 z"
     transform="matrix(0.99938209,0,0,0.99938209,-36.616721,-344.21586)" />
</svg>
