<svg version="1.1" viewBox="0 0 128 128" xmlns="http://www.w3.org/2000/svg">
 <g>
  <rect id="bg-light" x="8.6176e-7" y="3.3925e-8" width="128" height="128" rx="48.9" ry="48.093" fill="#f1cd75"/>
  <rect id="bg-dark" x="37.376" y="37.376" width="53.249" height="53.249" rx="20.342" ry="20.007" fill="#e9b128"/>
  <g id="insect" transform="matrix(.42807 0 0 .42807 -20.894 -92.959)">
   <path d="m197.4 272.79c-0.4529 0.20557-0.91562 0.34504-1.3633 0.57812-4.182 2.1774-12.188 5.095-20.844 13.467 0.0523-0.5176 0.14311-1.0945 0.20117-1.6289l-12.541 17.65-11.705-16.223c0.0214 0.0643 0.0529 0.13717 0.0742 0.20117-4.076-4.9942-8.7649-9.3898-15.225-12.436l1.1406 0.95703s-1.0929 0.17801-2.9121 0.61328-4.3638 1.1275-7.2656 2.1543c-2.9018 1.0268-6.1604 2.3876-9.4082 4.1621-1.6239 0.88728-3.2461 1.8789-4.8184 2.9824-1.5723 1.1035-3.0949 2.3189-4.5234 3.6582-1.4286 1.3393-2.6797 2.8184-3.7734 4.3809s-2.0304 3.2087-2.834 4.8828c-0.80357 1.6741-1.4732 3.3767-2.0312 5.0508-0.55804 1.6741-1.0042 3.3203-1.3613 4.8828-0.71429 3.125-1.0714 5.9149-1.25 7.9238-0.1165 1.3106-0.10311 1.5897-0.11719 2.1113 5.4939 13.552 16.277 23.414 29.912 27.518-5.4076 8.5386-3.5791 20.111 0.96484 24.953 6.7336 7.1762 15.805 7.6554 21.348 4.748 8.8617-4.2404 13.91-21.984 13.91-21.984s6.2853 14.411 12.4 20.113c9.3524 5.0397 21.913 3.9921 26.73-1.752 7.343-8.7554 3.3618-20.23-1.0215-27.471 13.215-5.8553 24.411-7.8434 30.98-31.58-0.0488-0.12446-1.4041-3.5969-3.9922-8.5977-1.317-2.5446-2.9344-5.4459-4.8262-8.4258-1.8918-2.9799-4.058-6.0393-6.4688-8.8965-1.2054-1.4286-2.4443-2.6953-3.6895-3.8184-1.2451-1.123-2.4961-2.1013-3.7266-2.9551-2.4609-1.7076-4.8382-2.9135-6.9141-3.7617s-3.8499-1.3401-5.1055-1.6191-1.9922-0.3457-1.9922-0.3457z" fill="#f8f4e3"/>
   <g fill="#1a1a1a">
    <path d="m197.4 272.79-2.0469 1.4941s0.73661 0.0667 1.9922 0.3457c1.2556 0.27902 3.0296 0.77093 5.1055 1.6191s4.4531 2.0541 6.9141 3.7617c1.2305 0.85379 2.4814 1.832 3.7266 2.9551 1.2451 1.123 2.4841 2.3898 3.6895 3.8184 2.4107 2.8571 4.577 5.9166 6.4688 8.8965 1.8917 2.9799 3.5092 5.8811 4.8262 8.4258 2.5881 5.0008 3.9434 8.4732 3.9922 8.5977 0.3166-1.1439 0.67809-2.0791 0.97265-3.3281 2.6528-11.249-1.3464-24.404-8.1699-32.438-5.5168-6.4954-17.094-8.8584-27.471-4.1484z"/>
    <path d="m96.848 318.16c0.01408-0.52163 6.91e-4 -0.80074 0.11719-2.1113 0.17857-2.0089 0.53571-4.7988 1.25-7.9238 0.35714-1.5625 0.80329-3.2087 1.3613-4.8828 0.55804-1.6741 1.2277-3.3767 2.0312-5.0508 0.80357-1.6741 1.7402-3.3203 2.834-4.8828s2.3449-3.0416 3.7734-4.3809c1.4286-1.3393 2.9512-2.5547 4.5234-3.6582 1.5723-1.1035 3.1945-2.0951 4.8184-2.9824 3.2478-1.7746 6.5064-3.1353 9.4082-4.1621 2.9018-1.0268 5.4464-1.719 7.2656-2.1543s2.9121-0.61328 2.9121-0.61328l-1.1406-0.95703c-1.3024-0.61407-2.566-1.2586-4.0332-1.748-7.0687-2.3608-22.449-3.4774-29.557 4.0723-9.4065 9.9911-9.4254 30.598-6.6582 38.74 0.31651 0.93129 0.7293 1.7964 1.0938 2.6953z"/>
    <path d="m151.15 286.63 11.705 16.223 12.541-17.65c0.80705-7.4291 5.4999-15.472 10.129-19.245 4.2964-3.5016 13.948-0.66568 14.679-6.4078s-13.554-6.4581-21.275-1.5586-13.962 20.765-16.286 32.109c-2.3412-10.771-10.638-29.23-17.893-33.931-3.8954-2.524-19.938-5.1316-19.956 3.0678 3.7723 6.4618 9.1414 2.6492 15.943 8.5859 5.9216 4.1153 8.2195 12.208 10.412 18.807z"/>
    <ellipse cx="124.82" cy="305" rx="8.0357" ry="8.5714"/>
    <ellipse cx="132.32" cy="328.21" rx="5.8929" ry="6.0714"/>
    <ellipse cx="201.79" cy="303.04" rx="8.2143" ry="8.75"/>
    <circle cx="194.64" cy="327.5" r="6.0714"/>
   </g>
  </g>
  <g id="fish" transform="matrix(.42807 0 0 .42807 -22.05 -92.085)">
   <path d="m206.32 370.73s21.718-4.0406 35.608-4.2931c13.89-0.25254 20.456 4.2931 24.749 9.849s6.566 14.9-2.7779 21.213c-9.3439 6.3134-57.579-26.769-57.579-26.769z" fill="#5caeb4"/>
   <path d="m213.9 462.65s17.425 6.0609 29.8 3.5355 20.708-4.7982 25.254-10.607c4.5457-5.8084 7.0711-12.879-4.0406-16.668-11.112-3.7881-51.013 23.739-51.013 23.739z" fill="#5caeb4"/>
   <path d="m198.32 370.09c-25.546 0.50508-47.266 8.7572-64.737 36.816-2.1747 3.4413-1.6411 10.512-1.0825 12.907 12.608 52.314 99.866 58.401 134.25 14.505l-0.0277 0.12824c2.1536-3.9211 5.1552-3.2104 7.303-1.6191 16.603 12.3 30.336 14.421 33.888 12.264 4.6836-3.2182 8.2807-9.2956 5.1131-14.287-3.65-5.9974-6.6783-5.6432-7.138-12.298-0.43269-6.2636 1.5923-7.5791 5.2784-12.661 2.3972-2.3804 5.6556-15.811-5.3486-16.478-15.758 1.5429-23.496 9.3635-34.037 15.278-4.0676 4.6603-6.8235-1.0446-6.8235-1.0446-16.69-21.858-33.648-33.005-66.638-33.511zm-36.298 23.346c14.074-0.50008 15.869 27.139-0.33635 27.144-15.597 6e-3 -15.963-26.564 0.33635-27.144z" fill="#503b30"/>
   <path d="m182.84 426.03c6.506-5.2602 21.466-17.425 28.032-4.7982 6.566 12.627-7.8287 28.032-11.617 29.547-3.7881 1.5152-21.718 3.5355-24.496-4.5457-0.50508-5.8084 5.1107-1.5584 8.0812-20.203z" fill="#5caeb4"/>
  </g>
 </g>
</svg>
