<svg version="1.1" viewBox="0 0 32 32" xmlns="http://www.w3.org/2000/svg">
 <path d="m13.434 9.9577c-1.1088-1.3306-4.9675-4.6361-9.9386-2.9865-7.2807 4.3191-1.7113 11.919 3.3488 15.003-5.111 8.7962 5.8131 9.7278 8.528 3.1011 0.14656-0.2275 0.39567-0.60266 0.56151-0.59828 0.17118 0.0048 0.50627 0.44925 0.6014 0.59828 1.3739 2.9378 7.3464 6.8315 9.632 2.2852 0.80001-1.5913-0.28999-3.931-0.71635-5.7739 4.5691-1.9828 9.8623-11.186 3.8692-14.219-3.7063-1.876-7.4484 0.73403-10.459 2.5902 0.1763-1.7102 0.86621-3.2527 2.3426-4.3307 1.9952-1.4568 3.1754-0.17696 3.319-1.7181 0.18763-2.013-3.4735-1.3138-4.4927-0.82072-2.4929 1.2062-3.3563 3.9667-3.8823 6.4819-0.87304-2.2761-1.5646-5.2003-3.8931-6.4666-0.9187-0.49958-4.7998-1.0817-4.8038 0.73622-0.0034 1.5447 2.0699 0.58736 3.6097 1.9037 1.3536 0.92133 1.8729 2.7436 2.3737 4.2143" fill="currentColor"/>
</svg>
