<?xml version="1.0" encoding="UTF-8" standalone="no"?>
<svg
   xmlns:dc="http://purl.org/dc/elements/1.1/"
   xmlns:cc="http://creativecommons.org/ns#"
   xmlns:rdf="http://www.w3.org/1999/02/22-rdf-syntax-ns#"
   xmlns:svg="http://www.w3.org/2000/svg"
   xmlns="http://www.w3.org/2000/svg"
   xmlns:sodipodi="http://sodipodi.sourceforge.net/DTD/sodipodi-0.dtd"
   xmlns:inkscape="http://www.inkscape.org/namespaces/inkscape"
   sodipodi:docname="name-label-border.svg"
   inkscape:version="1.0rc1 (09960d6, 2020-04-09)"
   id="svg3691"
   version="1.1"
   viewBox="0 0 120 120"
   height="120"
   width="120">
  <defs
     id="defs3685" />
  <sodipodi:namedview
     inkscape:window-maximized="0"
     inkscape:window-y="23"
     inkscape:window-x="0"
     inkscape:window-height="943"
     inkscape:window-width="1252"
     inkscape:guide-bbox="true"
     showguides="true"
     units="px"
     showgrid="false"
     inkscape:document-rotation="0"
     inkscape:current-layer="g3661"
     inkscape:document-units="px"
     inkscape:cy="84.908524"
     inkscape:cx="-83.608431"
     inkscape:zoom="1"
     inkscape:pageshadow="2"
     inkscape:pageopacity="0.0"
     borderopacity="1.0"
     bordercolor="#666666"
     pagecolor="#ffffff"
     id="base">
    <sodipodi:guide
       inkscape:color="rgb(0,0,255)"
       inkscape:locked="false"
       inkscape:label=""
       id="guide3725"
       orientation="-1,0"
       position="40,40" />
  </sodipodi:namedview>
  <metadata
     id="metadata3688">
    <rdf:RDF>
      <cc:Work
         rdf:about="">
        <dc:format>image/svg+xml</dc:format>
        <dc:type
           rdf:resource="http://purl.org/dc/dcmitype/StillImage" />
        <dc:title></dc:title>
      </cc:Work>
    </rdf:RDF>
  </metadata>
  <g
     id="layer1"
     inkscape:groupmode="layer"
     inkscape:label="Layer 1">
    <g
       id="g3661"
       transform="matrix(1.3054279,0,0,1.3054279,-300.92306,-444.92308)">
      <path
         inkscape:connector-curvature="0"
         id="path3040"
         d="m 252.5387,353.19984 8.293,-1.06066 h 36.9325 l 3.81504,1.06066 -4.04609,1.06066 -38.14552,0.35356 z"
         style="fill:#808080;fill-opacity:1;stroke:none;stroke-width:0.40420000000000000px;stroke-linecap:butt;stroke-linejoin:miter;stroke-opacity:1"
         sodipodi:nodetypes="ccccccc" />
      <path
         inkscape:connector-curvature="0"
         id="path3603"
         d="m 252.19212,418.96077 6.73341,-0.70711 36.07847,-0.51559 6.34419,0.86915 -1.78753,0.86915 -41.73262,0.89861 z"
         style="fill:#808080;fill-opacity:1;stroke:none;stroke-width:0.40420000000000000px;stroke-linecap:butt;stroke-linejoin:miter;stroke-opacity:1"
         sodipodi:nodetypes="ccccccc" />
      <path
         inkscape:connector-curvature="0"
         id="path3605"
         d="m 247.42264,349.11924 5.69369,0.89862 h 47.94305 l 6.9978,-0.70711 -7.11332,-1.06066 h -47.71201 z"
         style="fill:#808080;fill-opacity:1;stroke:none;stroke-width:0.40420000000000000px;stroke-linecap:butt;stroke-linejoin:miter;stroke-opacity:1"
         sodipodi:nodetypes="ccccccc" />
      <path
         inkscape:connector-curvature="0"
         id="path3607"
         d="m 247.32533,423.04137 5.61771,-0.54507 45.48679,-0.35355 8.28369,1.06066 -8.34145,1.41421 -44.73588,1e-5 z"
         style="fill:#808080;fill-opacity:1;stroke:none;stroke-width:0.40420000000000000px;stroke-linecap:butt;stroke-linejoin:miter;stroke-opacity:1"
         sodipodi:nodetypes="ccccccc" />
      <path
         sodipodi:nodetypes="cczzczzcc"
         inkscape:connector-curvature="0"
         id="path3609"
         d="m 300.69715,353.02306 3.35876,-0.53033 c 0,0 0.37203,2.78853 1.06066,3.88909 0.68863,1.10056 1.58134,1.77949 2.82843,2.47487 1.24709,0.69538 4.59619,1.41422 4.59619,1.41422 0,0 -3.86193,0.74348 -5.65685,0 -1.79492,-0.74348 -2.92191,-3.09605 -3.53554,-4.24264 -0.61363,-1.14659 -0.53033,-2.12132 -0.53033,-2.12132 z"
         style="fill:#808080;fill-opacity:1;stroke:none;stroke-width:1px;stroke-linecap:butt;stroke-linejoin:miter;stroke-opacity:1" />
      <path
         inkscape:connector-curvature="0"
         id="path3611"
         d="m 312.71797,364.51355 -1.06066,2.82843 -0.17678,36.76955 1.41421,4.24264 0.35356,-41.36575 z"
         style="fill:#808080;fill-opacity:1;stroke:none;stroke-width:1px;stroke-linecap:butt;stroke-linejoin:miter;stroke-opacity:1" />
      <path
         style="fill:#808080;fill-opacity:1;stroke:none;stroke-width:1px;stroke-linecap:butt;stroke-linejoin:miter;stroke-opacity:1"
         d="m 312.35286,407.55868 0.53033,3.35876 c 0,0 -2.78853,0.37203 -3.88909,1.06066 -1.10056,0.68863 -1.77949,1.58134 -2.47487,2.82843 -0.69538,1.24709 -1.41422,4.59619 -1.41422,4.59619 0,0 -0.74348,-3.86193 0,-5.65685 0.74348,-1.79492 3.09605,-2.92191 4.24264,-3.53554 1.14659,-0.61363 2.12132,-0.53033 2.12132,-0.53033 z"
         id="path3609-7"
         inkscape:connector-curvature="0"
         sodipodi:nodetypes="cczzczzcc" />
      <path
         inkscape:connector-curvature="0"
         id="path3628"
         d="m 316.78383,353.55339 -0.70711,15.02602 -0.53033,41.36575 1.94455,6.36396 0.88388,-6.36396 -0.70711,-49.3207 z"
         style="fill:#808080;fill-opacity:1;stroke:none;stroke-width:1px;stroke-linecap:butt;stroke-linejoin:miter;stroke-opacity:1" />
      <path
         inkscape:connector-curvature="0"
         id="path3630"
         d="m 236.88078,351.43207 -0.88389,23.68808 -1.23743,26.87006 1.23743,13.43503 1.41422,-10.6066 0.17677,-40.83542 z"
         style="fill:#808080;fill-opacity:1;stroke:none;stroke-width:1px;stroke-linecap:butt;stroke-linejoin:miter;stroke-opacity:1" />
      <path
         inkscape:connector-curvature="0"
         id="path3632"
         d="m 240.23953,361.33157 -0.35355,45.07806 0.17678,3.0052 1.41421,-7.77818 0.35355,-29.69848 -0.35355,-7.24784 z"
         style="fill:#808080;fill-opacity:1;stroke:none;stroke-width:1px;stroke-linecap:butt;stroke-linejoin:miter;stroke-opacity:1" />
      <path
         style="fill:#808080;fill-opacity:1;stroke:none;stroke-width:1px;stroke-linecap:butt;stroke-linejoin:miter;stroke-opacity:1"
         d="m 254.82361,353.03462 -3.35876,-0.53033 c 0,0 -0.37203,2.78853 -1.06066,3.88909 -0.68863,1.10056 -1.58134,1.77949 -2.82843,2.47487 -1.24709,0.69538 -4.59619,1.41422 -4.59619,1.41422 0,0 3.86193,0.74348 5.65685,0 1.79492,-0.74348 2.92191,-3.09605 3.53554,-4.24264 0.61363,-1.14659 0.53033,-2.12132 0.53033,-2.12132 z"
         id="path3609-4"
         inkscape:connector-curvature="0"
         sodipodi:nodetypes="cczzczzcc" />
      <path
         style="fill:#808080;fill-opacity:1;stroke:none;stroke-width:1px;stroke-linecap:butt;stroke-linejoin:miter;stroke-opacity:1"
         d="m 241.13497,407.73545 -0.53033,3.35876 c 0,0 2.78853,0.37203 3.88909,1.06066 1.10056,0.68863 1.77949,1.58134 2.47487,2.82843 0.69538,1.24709 1.41422,4.59619 1.41422,4.59619 0,0 0.74348,-3.86193 0,-5.65685 -0.74348,-1.79492 -3.09605,-2.92191 -4.24264,-3.53554 -1.14659,-0.61363 -2.12132,-0.53033 -2.12132,-0.53033 z"
         id="path3609-2"
         inkscape:connector-curvature="0"
         sodipodi:nodetypes="cczzczzcc" />
    </g>
  </g>
</svg>
