<?xml version="1.0" encoding="UTF-8"?>
<svg version="1.1" viewBox="0 0 64 64" xmlns="http://www.w3.org/2000/svg">
 <path d="m0.017725 31.761s0.89343-3.5266 2.4498-5.3319c1.5563-1.8053 4.1864-3.3444 7.0611-4.6113 2.8747-1.2669 5.8705-2.445 10.808-2.4498 4.9373-0.0049 8.2097 1.185 12.249 2.1616 4.0391 0.97654 7.8776 2.426 11.24 3.4585 3.3625 1.0325 5.5679 1.6186 8.9345 2.738 3.3666 1.1194 11.24 4.0349 11.24 4.0349s-7.5849 3.2986-10.952 4.6113c-3.367 1.3128-5.457 2.1131-9.2227 3.3144-3.7656 1.2013-9.4168 2.9736-13.402 3.7467-3.9849 0.77312-6.5949 1.3709-10.376 1.1528-3.7806-0.21805-8.5126-1.1243-11.672-2.738-3.1598-1.6136-5.7163-2.7069-6.9603-4.6476-1.244-1.9408-1.3977-5.4396-1.3977-5.4396z" fill="#666"/>
</svg>
