<?xml version="1.0" encoding="UTF-8" standalone="no"?>
<svg
   xmlns:dc="http://purl.org/dc/elements/1.1/"
   xmlns:cc="http://creativecommons.org/ns#"
   xmlns:rdf="http://www.w3.org/1999/02/22-rdf-syntax-ns#"
   xmlns:svg="http://www.w3.org/2000/svg"
   xmlns="http://www.w3.org/2000/svg"
   xmlns:sodipodi="http://sodipodi.sourceforge.net/DTD/sodipodi-0.dtd"
   xmlns:inkscape="http://www.inkscape.org/namespaces/inkscape"
   sodipodi:docname="objects.svg"
   inkscape:version="1.0rc1 (09960d6, 2020-04-09)"
   width="1024.0px"
   height="768.0px"
   viewBox="0 0 1024.0 768.0"
   version="1.1"
   id="SVGRoot">
  <defs
     id="defs42">
    <mask
       id="mask131"
       maskUnits="userSpaceOnUse">
      <rect
         y="-208.57143"
         x="-294.28571"
         height="320"
         width="565.71429"
         id="rect133"
         style="fill:#ffffff;fill-rule:evenodd" />
    </mask>
  </defs>
  <sodipodi:namedview
     inkscape:snap-bbox="true"
     inkscape:guide-bbox="true"
     showguides="true"
     inkscape:snap-others="false"
     inkscape:snap-nodes="false"
     inkscape:object-nodes="false"
     inkscape:window-maximized="0"
     inkscape:window-y="23"
     inkscape:window-x="149"
     inkscape:window-height="943"
     inkscape:window-width="1451"
     showgrid="false"
     inkscape:document-rotation="0"
     inkscape:current-layer="layer1"
     inkscape:document-units="px"
     inkscape:cy="323.25473"
     inkscape:cx="273.49974"
     inkscape:zoom="0.98994949"
     inkscape:pageshadow="2"
     inkscape:pageopacity="0.0"
     borderopacity="1.0"
     bordercolor="#666666"
     pagecolor="#ffffff"
     id="base" />
  <metadata
     id="metadata45">
    <rdf:RDF>
      <cc:Work
         rdf:about="">
        <dc:format>image/svg+xml</dc:format>
        <dc:type
           rdf:resource="http://purl.org/dc/dcmitype/StillImage" />
        <dc:title></dc:title>
      </cc:Work>
    </rdf:RDF>
  </metadata>
  <g
     id="layer1"
     inkscape:groupmode="layer"
     inkscape:label="Layer 1">
    <path
       sodipodi:nodetypes="sccccccsccscsscs"
       inkscape:connector-curvature="0"
       d="m 126.66864,42.24172 c -9.61887,0.18275 -19.47526,2.35486 -21.3789,11.64278 0.0319,0.46206 -0.12306,1.69383 0.0586,2.47245 4.42802,18.98162 35.3471,20.30386 43.73599,5.45572 l -0.009,0.0417 c 2.2903,4.79198 6.43101,6.35143 10.684,7.48495 0.61966,0.18531 0.72181,-0.31275 0.51298,-0.62196 -1.18684,-1.95014 -3.75795,-6.71793 -3.96338,-11.71787 -0.21665,-5.27304 2.89916,-10.10133 4.09774,-11.75389 0.20466,-0.36345 0.3609,-0.62483 -0.26106,-0.7594 -0.87557,-0.0771 -2.61871,0.0487 -5.60001,1.31607 -3.45051,1.46683 -4.89454,5.44726 -4.89454,5.44726 -3.4785,-5.80533 -13.36354,-9.19057 -22.98242,-9.00781 z m -11.63867,6.27734 c 4.57641,-0.16261 5.16005,8.82457 -0.10937,8.82617 -5.07172,0.002 -5.19059,-8.63786 0.10937,-8.82617 z"
       style="fill:#666666;fill-opacity:1;stroke:none;stroke-linecap:round;stroke-linejoin:round;stroke-opacity:1"
       id="path990" />
    <path
       sodipodi:nodetypes="ccccscscscssccsscc"
       inkscape:connector-curvature="0"
       id="path151"
       d="m 42.805777,46.114525 c -1.86097,-2.23319 -8.337292,-7.781 -16.680577,-5.0124 -12.219624,7.24893 -2.872154,20.00446 5.620463,25.18085 -8.57817,14.76324 9.756424,16.32674 14.313094,5.20476 0.24598,-0.38183 0.66407,-1.01149 0.94242,-1.00413 0.2873,0.008 0.8497,0.754 1.00936,1.00413 2.30597,4.93073 12.32995,11.46566 16.16599,3.83533 1.3427,-2.67077 -0.48671,-6.59762 -1.2023,-9.69068 7.66855,-3.32782 16.55257,-18.77396 6.49392,-23.8652 -6.22054,-3.14855 -12.50112,1.23197 -17.55404,4.34734 0.2959,-2.87029 1.45382,-5.45928 3.93168,-7.26851 3.34861,-2.44502 5.32945,-0.297 5.57055,-2.88354 0.31491,-3.37862 -5.82975,-2.20511 -7.54042,-1.37747 -4.18404,2.0244 -5.63305,6.65754 -6.51597,10.87893 -1.46527,-3.82016 -2.626,-8.72806 -6.53406,-10.85329 -1.54191,-0.83848 -8.05575,-1.81553 -8.062452,1.23565 -0.0057,2.59256 3.473972,0.9858 6.058422,3.19503 2.27188,1.54633 3.14342,4.60478 3.98392,7.0732"
       style="fill:#666666;fill-opacity:1;stroke:none;stroke-width:0.650595;stroke-linecap:round;stroke-linejoin:round;stroke-opacity:1" />
    <path
       sodipodi:nodetypes="czzzzzzczzzzzzc"
       inkscape:connector-curvature="0"
       id="path1045"
       d="m 54.285714,124.64286 c 0,0 1.107118,-4.37008 3.035714,-6.60715 1.928596,-2.23707 5.187731,-4.14433 8.75,-5.71428 3.562269,-1.56995 7.274667,-3.02982 13.392857,-3.03572 6.11819,-0.006 10.173373,1.46847 15.178572,2.67858 5.0052,1.21011 9.761823,3.00622 13.928573,4.28571 4.16675,1.27949 6.8996,2.0057 11.07143,3.39286 4.17183,1.38716 13.92857,5 13.92857,5 0,0 -9.39909,4.08752 -13.57143,5.71428 -4.17234,1.62676 -6.76224,2.61853 -11.42857,4.10714 -4.66633,1.48861 -11.669183,3.68483 -16.607143,4.64286 -4.937959,0.95803 -8.172339,1.69877 -12.857145,1.42857 -4.684803,-0.27019 -10.548723,-1.39327 -14.464285,-3.39285 -3.915562,-1.99959 -7.565568,-4.5593 -9.107143,-6.96429 -1.541575,-2.40499 -1.25,-5.53571 -1.25,-5.53571 z"
       style="fill:#666666;stroke:none;stroke-width:1px;stroke-linecap:butt;stroke-linejoin:miter;stroke-opacity:1" />
    <rect
       ry="112.34689"
       rx="114.23192"
       y="215.11444"
       x="51.510326"
       height="299.01492"
       width="299.01489"
       id="rect1171"
       style="fill:#f1cd75;fill-opacity:1;stroke:none;stroke-width:0.985091;stroke-linecap:round;stroke-linejoin:round;stroke-opacity:1" />
    <g
       transform="translate(2.7009392,-2.0431355)"
       id="g1109">
      <path
         inkscape:connector-curvature="0"
         id="path151-9"
         style="fill:#f8f4e3;fill-opacity:1;stroke:none;stroke-width:1.7302;stroke-linecap:round;stroke-linejoin:round;stroke-opacity:1"
         d="m 197.4043,272.79102 c -0.4529,0.20557 -0.91562,0.34504 -1.36328,0.57812 -4.18198,2.17739 -12.18807,5.09499 -20.84375,13.4668 0.0523,-0.5176 0.14311,-1.09451 0.20117,-1.62891 l -12.54102,17.65039 -11.70508,-16.22265 c 0.0214,0.0643 0.0529,0.13717 0.0742,0.20117 -4.07602,-4.99423 -8.76486,-9.38985 -15.22461,-12.43555 l 1.14063,0.95703 c 0,0 -1.09291,0.17801 -2.91211,0.61328 -1.8192,0.43527 -4.36384,1.12751 -7.26563,2.1543 -2.90178,1.02679 -6.16043,2.38756 -9.4082,4.16211 -1.62388,0.88728 -3.24609,1.87891 -4.81836,2.98242 -1.57226,1.10352 -3.09486,2.31892 -4.52344,3.6582 -1.42857,1.33929 -2.67968,2.81836 -3.77343,4.38086 -1.09375,1.5625 -2.03042,3.20871 -2.83399,4.88282 -0.80357,1.6741 -1.47321,3.37667 -2.031248,5.05078 -0.558036,1.6741 -1.004185,3.32031 -1.361328,4.88281 -0.714286,3.125 -1.071429,5.9149 -1.25,7.92383 -0.116497,1.31059 -0.103111,1.5897 -0.117188,2.11133 5.493944,13.55158 16.277174,23.41446 29.912114,27.51757 -5.40764,8.5386 -3.57906,20.11055 0.96484,24.95313 6.73362,7.17625 15.80548,7.65542 21.34766,4.74805 8.86168,-4.24037 13.91015,-21.98438 13.91015,-21.98438 0,0 6.28534,14.41124 12.40039,20.11328 9.3524,5.03969 21.913,3.99208 26.73047,-1.75195 7.34305,-8.75537 3.36185,-20.23028 -1.02148,-27.4707 13.21455,-5.85527 24.41052,-7.84343 30.98047,-31.58008 -0.0488,-0.12446 -1.40407,-3.59689 -3.99219,-8.59766 -1.31697,-2.54464 -2.93443,-5.44587 -4.82617,-8.42578 -1.89175,-2.97991 -4.05804,-6.03934 -6.46875,-8.89648 -1.20536,-1.42858 -2.44434,-2.69532 -3.68946,-3.81836 -1.24511,-1.12305 -2.49609,-2.10129 -3.72656,-2.95508 -2.46094,-1.70759 -4.83817,-2.91351 -6.91406,-3.76172 -2.07589,-0.84821 -3.84989,-1.34012 -5.10547,-1.61914 -1.25558,-0.27902 -1.99219,-0.3457 -1.99219,-0.3457 z" />
      <path
         inkscape:connector-curvature="0"
         id="path1090"
         style="fill:#1a1a1a;fill-opacity:1;stroke:none;stroke-width:1.7302;stroke-linecap:round;stroke-linejoin:round;stroke-opacity:1"
         d="m 197.4043,272.79102 -2.04688,1.49414 c 0,0 0.73661,0.0667 1.99219,0.3457 1.25558,0.27902 3.02958,0.77093 5.10547,1.61914 2.07589,0.84821 4.45312,2.05413 6.91406,3.76172 1.23047,0.85379 2.48145,1.83203 3.72656,2.95508 1.24512,1.12304 2.4841,2.38978 3.68946,3.81836 2.41071,2.85714 4.577,5.91657 6.46875,8.89648 1.89174,2.97991 3.5092,5.88114 4.82617,8.42578 2.58812,5.00077 3.94342,8.4732 3.99219,8.59766 0.3166,-1.14387 0.67809,-2.07911 0.97265,-3.32813 2.65276,-11.24854 -1.34641,-24.40361 -8.16992,-32.4375 -5.51678,-6.49538 -17.09424,-8.85841 -27.4707,-4.14843 z" />
      <path
         inkscape:connector-curvature="0"
         id="path1085"
         style="fill:#1a1a1a;fill-opacity:1;stroke:none;stroke-width:1.7302;stroke-linecap:round;stroke-linejoin:round;stroke-opacity:1"
         d="m 96.847656,318.16016 c 0.01408,-0.52163 6.91e-4,-0.80074 0.117188,-2.11133 0.178571,-2.00893 0.535714,-4.79883 1.25,-7.92383 0.357143,-1.5625 0.803292,-3.20871 1.361328,-4.88281 0.558038,-1.67411 1.227678,-3.37668 2.031248,-5.05078 0.80357,-1.67411 1.74024,-3.32032 2.83399,-4.88282 1.09375,-1.5625 2.34486,-3.04157 3.77343,-4.38086 1.42858,-1.33928 2.95118,-2.55468 4.52344,-3.6582 1.57227,-1.10351 3.19448,-2.09514 4.81836,-2.98242 3.24777,-1.77455 6.50642,-3.13532 9.4082,-4.16211 2.90179,-1.02679 5.44643,-1.71903 7.26563,-2.1543 1.8192,-0.43527 2.91211,-0.61328 2.91211,-0.61328 l -1.14063,-0.95703 c -1.3024,-0.61407 -2.56605,-1.25857 -4.0332,-1.74805 -7.06872,-2.36077 -22.44867,-3.47745 -29.55664,4.07227 -9.406457,9.99107 -9.425399,30.5981 -6.658204,38.74023 0.316509,0.93129 0.729305,1.79636 1.09375,2.69532 z" />
      <path
         sodipodi:nodetypes="cccszzcsccc"
         inkscape:connector-curvature="0"
         id="path1080"
         style="fill:#1a1a1a;fill-opacity:1;stroke:none;stroke-width:1.7302;stroke-linecap:round;stroke-linejoin:round;stroke-opacity:1"
         d="m 151.15234,286.63477 11.70508,16.22265 12.54102,-17.65039 c 0.80705,-7.42907 5.49992,-15.47172 10.1291,-19.24453 4.29644,-3.50162 13.94782,-0.66568 14.67949,-6.40781 0.73167,-5.74213 -13.55448,-6.45806 -21.27539,-1.5586 -7.72091,4.89946 -13.96223,20.76522 -16.28594,32.10919 -2.34115,-10.77083 -10.63779,-29.22997 -17.89277,-33.93086 -3.8954,-2.52404 -19.9384,-5.13155 -19.95605,3.06777 3.77227,6.46179 9.14144,2.64916 15.94335,8.58593 5.92158,4.1153 8.21947,12.20757 10.41211,18.80665 z" />
      <ellipse
         style="fill:#1a1a1a;fill-opacity:1;stroke:none;stroke-linecap:round;stroke-linejoin:round;stroke-opacity:1"
         id="path1093"
         cx="124.82143"
         cy="305"
         rx="8.0357141"
         ry="8.5714283" />
      <ellipse
         style="fill:#1a1a1a;fill-opacity:1;stroke:none;stroke-linecap:round;stroke-linejoin:round;stroke-opacity:1"
         id="path1095"
         cx="132.32143"
         cy="328.21429"
         rx="5.8928571"
         ry="6.0714288" />
      <ellipse
         style="fill:#1a1a1a;fill-opacity:1;stroke:none;stroke-linecap:round;stroke-linejoin:round;stroke-opacity:1"
         id="path1097"
         cx="201.78572"
         cy="303.03571"
         rx="8.2142859"
         ry="8.75" />
      <circle
         style="fill:#1a1a1a;fill-opacity:1;stroke:none;stroke-linecap:round;stroke-linejoin:round;stroke-opacity:1"
         id="path1099"
         cx="194.64285"
         cy="327.5"
         r="6.0714288" />
    </g>
    <g
       id="g1169">
      <path
         style="fill:#5caeb4;stroke:none;stroke-width:1px;stroke-linecap:butt;stroke-linejoin:miter;stroke-opacity:1;fill-opacity:1"
         d="m 206.32366,370.72598 c 0,0 21.71828,-4.04061 35.60787,-4.29314 13.8896,-0.25254 20.45559,4.29314 24.74874,9.84898 4.29315,5.55584 6.56599,14.89975 -2.77792,21.21321 -9.34391,6.31345 -57.57869,-26.76905 -57.57869,-26.76905 z"
         id="path1126"
         inkscape:connector-curvature="0" />
      <path
         style="fill:#5caeb4;stroke:none;stroke-width:1px;stroke-linecap:butt;stroke-linejoin:miter;stroke-opacity:1;fill-opacity:1"
         d="m 213.8998,462.64987 c 0,0 17.42513,6.06091 29.7995,3.53553 12.37437,-2.52538 20.70813,-4.79822 25.25382,-10.6066 4.54568,-5.80838 7.07106,-12.87945 -4.04061,-16.66752 -11.11168,-3.78807 -51.01271,23.73859 -51.01271,23.73859 z"
         id="path1128"
         inkscape:connector-curvature="0"
         sodipodi:nodetypes="csssc" />
      <path
         sodipodi:nodetypes="cccccsccsccccccsc"
         inkscape:connector-curvature="0"
         d="m 198.31801,370.08574 c -25.54612,0.50508 -47.26635,8.75725 -64.73746,36.81578 -2.17474,3.44131 -1.64114,10.51242 -1.08247,12.90695 12.60756,52.31422 99.86588,58.40087 134.25095,14.50541 l -0.0277,0.12824 c 2.15357,-3.9211 5.15518,-3.21037 7.30303,-1.61914 16.60265,12.30004 30.33558,14.42056 33.88778,12.26362 4.68359,-3.21818 8.28073,-9.29558 5.11312,-14.28712 -3.64995,-5.99736 -6.67831,-5.64318 -7.13801,-12.29796 -0.43269,-6.26359 1.59232,-7.57909 5.27838,-12.66129 2.39717,-2.38043 5.65558,-15.81116 -5.34855,-16.47755 -15.75767,1.5429 -23.49577,9.36353 -34.03717,15.27819 -4.06762,4.66027 -6.82353,-1.04458 -6.82353,-1.04458 -16.68969,-21.85785 -33.64779,-33.00547 -66.63837,-33.51055 z m -36.29807,23.34563 c 14.07407,-0.50008 15.86897,27.13865 -0.33635,27.14357 -15.59731,0.006 -15.96288,-26.56445 0.33635,-27.14357 z"
         style="fill:#503b30;fill-opacity:1;stroke:none;stroke-width:3.07535;stroke-linecap:round;stroke-linejoin:round;stroke-opacity:1"
         id="path990-5" />
      <path
         style="fill:#5caeb4;stroke:none;stroke-width:1px;stroke-linecap:butt;stroke-linejoin:miter;stroke-opacity:1;fill-opacity:1"
         d="m 182.83761,426.03184 c 6.50601,-5.26018 21.46574,-17.42513 28.03173,-4.79823 6.566,12.62691 -7.82868,28.03174 -11.61675,29.54696 -3.78807,1.51523 -21.71828,3.53554 -24.4962,-4.54568 -0.50508,-5.80838 5.11074,-1.55835 8.08122,-20.20305 z"
         id="path1130"
         inkscape:connector-curvature="0"
         sodipodi:nodetypes="csccc" />
    </g>
  </g>
</svg>
