<?xml version="1.0" encoding="UTF-8" standalone="no"?>
<svg
   xmlns:dc="http://purl.org/dc/elements/1.1/"
   xmlns:cc="http://creativecommons.org/ns#"
   xmlns:rdf="http://www.w3.org/1999/02/22-rdf-syntax-ns#"
   xmlns:svg="http://www.w3.org/2000/svg"
   xmlns="http://www.w3.org/2000/svg"
   xmlns:xlink="http://www.w3.org/1999/xlink"
   xmlns:sodipodi="http://sodipodi.sourceforge.net/DTD/sodipodi-0.dtd"
   xmlns:inkscape="http://www.inkscape.org/namespaces/inkscape"
   id="SVGRoot"
   version="1.1"
   viewBox="0 0 1024.0 768.0"
   height="768.0px"
   width="1024.0px"
   inkscape:version="1.0rc1 (09960d6, 2020-04-09)"
   sodipodi:docname="objects.svg">
  <defs
     id="defs42">
    <linearGradient
       inkscape:collect="always"
       id="linearGradient1513">
      <stop
         style="stop-color:#6aa3f3;stop-opacity:1;"
         offset="0"
         id="stop1509" />
      <stop
         style="stop-color:#3283f0;stop-opacity:0.99607843"
         offset="1"
         id="stop1511" />
    </linearGradient>
    <linearGradient
       inkscape:collect="always"
       id="linearGradient1487">
      <stop
         style="stop-color:#f9de5c;stop-opacity:1;"
         offset="0"
         id="stop1483" />
      <stop
         style="stop-color:#f9de5c;stop-opacity:0;"
         offset="1"
         id="stop1485" />
    </linearGradient>
    <mask
       maskUnits="userSpaceOnUse"
       id="mask131">
      <rect
         style="fill:#ffffff;fill-rule:evenodd"
         id="rect133"
         width="565.71429"
         height="320"
         x="-294.28571"
         y="-208.57143" />
    </mask>
    <linearGradient
       inkscape:collect="always"
       xlink:href="#linearGradient1487"
       id="linearGradient1489"
       x1="329.66183"
       y1="193.60857"
       x2="342.72864"
       y2="235.75142"
       gradientUnits="userSpaceOnUse" />
    <linearGradient
       inkscape:collect="always"
       xlink:href="#linearGradient1487"
       id="linearGradient1497"
       gradientUnits="userSpaceOnUse"
       x1="329.66183"
       y1="193.60857"
       x2="342.72864"
       y2="235.75142" />
    <linearGradient
       inkscape:collect="always"
       xlink:href="#linearGradient1513"
       id="linearGradient1515"
       x1="400.02039"
       y1="203.54573"
       x2="401.03055"
       y2="293.44931"
       gradientUnits="userSpaceOnUse"
       gradientTransform="translate(5,-30)" />
    <mask
       id="mask3034"
       maskUnits="userSpaceOnUse">
      <rect
         y="671"
         x="269"
         height="154"
         width="452"
         id="rect3036"
         style="fill:#ffffff;stroke-width:0.3;stroke-linecap:round;stroke-linejoin:round" />
    </mask>
  </defs>
  <sodipodi:namedview
     id="base"
     pagecolor="#ffffff"
     bordercolor="#666666"
     borderopacity="1.0"
     inkscape:pageopacity="0.0"
     inkscape:pageshadow="2"
     inkscape:zoom="4"
     inkscape:cx="317.00142"
     inkscape:cy="385.65715"
     inkscape:document-units="px"
     inkscape:current-layer="layer1"
     inkscape:document-rotation="0"
     showgrid="false"
     inkscape:window-width="1451"
     inkscape:window-height="943"
     inkscape:window-x="257"
     inkscape:window-y="23"
     inkscape:window-maximized="0"
     inkscape:object-nodes="false"
     inkscape:snap-nodes="false"
     inkscape:snap-others="false"
     showguides="true"
     inkscape:guide-bbox="true"
     inkscape:snap-bbox="true" />
  <metadata
     id="metadata45">
    <rdf:RDF>
      <cc:Work
         rdf:about="">
        <dc:format>image/svg+xml</dc:format>
        <dc:type
           rdf:resource="http://purl.org/dc/dcmitype/StillImage" />
        <dc:title />
      </cc:Work>
    </rdf:RDF>
  </metadata>
  <g
     inkscape:groupmode="layer"
     id="layer2"
     inkscape:label="Reference" />
  <g
     inkscape:label="Layer 1"
     inkscape:groupmode="layer"
     id="layer1">
    <rect
       style="fill:url(#linearGradient1515);fill-opacity:1;stroke:none;stroke-linecap:round;stroke-linejoin:round;stroke-opacity:1"
       id="rect1499"
       width="317.1879"
       height="188.89853"
       x="253.49751"
       y="117.48227" />
    <path
       id="path990"
       style="fill:#666666;fill-opacity:1;stroke:none;stroke-linecap:round;stroke-linejoin:round;stroke-opacity:1"
       d="m 126.66864,42.24172 c -9.61887,0.18275 -19.47526,2.35486 -21.3789,11.64278 0.0319,0.46206 -0.12306,1.69383 0.0586,2.47245 4.42802,18.98162 35.3471,20.30386 43.73599,5.45572 l -0.009,0.0417 c 2.2903,4.79198 6.43101,6.35143 10.684,7.48495 0.61966,0.18531 0.72181,-0.31275 0.51298,-0.62196 -1.18684,-1.95014 -3.75795,-6.71793 -3.96338,-11.71787 -0.21665,-5.27304 2.89916,-10.10133 4.09774,-11.75389 0.20466,-0.36345 0.3609,-0.62483 -0.26106,-0.7594 -0.87557,-0.0771 -2.61871,0.0487 -5.60001,1.31607 -3.45051,1.46683 -4.89454,5.44726 -4.89454,5.44726 -3.4785,-5.80533 -13.36354,-9.19057 -22.98242,-9.00781 z m -11.63867,6.27734 c 4.57641,-0.16261 5.16005,8.82457 -0.10937,8.82617 -5.07172,0.002 -5.19059,-8.63786 0.10937,-8.82617 z"
       inkscape:connector-curvature="0"
       sodipodi:nodetypes="sccccccsccscsscs" />
    <path
       style="fill:#666666;fill-opacity:1;stroke:none;stroke-width:0.650595;stroke-linecap:round;stroke-linejoin:round;stroke-opacity:1"
       d="m 42.805777,46.114525 c -1.86097,-2.23319 -8.337292,-7.781 -16.680577,-5.0124 -12.219624,7.24893 -2.872154,20.00446 5.620463,25.18085 -8.57817,14.76324 9.756424,16.32674 14.313094,5.20476 0.24598,-0.38183 0.66407,-1.01149 0.94242,-1.00413 0.2873,0.008 0.8497,0.754 1.00936,1.00413 2.30597,4.93073 12.32995,11.46566 16.16599,3.83533 1.3427,-2.67077 -0.48671,-6.59762 -1.2023,-9.69068 7.66855,-3.32782 16.55257,-18.77396 6.49392,-23.8652 -6.22054,-3.14855 -12.50112,1.23197 -17.55404,4.34734 0.2959,-2.87029 1.45382,-5.45928 3.93168,-7.26851 3.34861,-2.44502 5.32945,-0.297 5.57055,-2.88354 0.31491,-3.37862 -5.82975,-2.20511 -7.54042,-1.37747 -4.18404,2.0244 -5.63305,6.65754 -6.51597,10.87893 -1.46527,-3.82016 -2.626,-8.72806 -6.53406,-10.85329 -1.54191,-0.83848 -8.05575,-1.81553 -8.062452,1.23565 -0.0057,2.59256 3.473972,0.9858 6.058422,3.19503 2.27188,1.54633 3.14342,4.60478 3.98392,7.0732"
       id="path151"
       inkscape:connector-curvature="0"
       sodipodi:nodetypes="ccccscscscssccsscc" />
    <path
       style="fill:#333333;stroke:none;stroke-width:1px;stroke-linecap:butt;stroke-linejoin:miter;stroke-opacity:1"
       d="m 431.52692,215.86116 c 0,0 1.10712,-4.37008 3.03572,-6.60715 1.92859,-2.23707 5.18773,-4.14433 8.75,-5.71428 3.56227,-1.56995 7.27467,-3.02982 13.39286,-3.03572 6.11819,-0.006 10.17337,1.46847 15.17857,2.67858 5.0052,1.21011 9.76182,3.00622 13.92857,4.28571 4.16675,1.27949 6.8996,2.0057 11.07143,3.39286 4.17183,1.38716 13.92857,5 13.92857,5 0,0 -9.39909,4.08752 -13.57143,5.71428 -4.17234,1.62676 -6.76224,2.61853 -11.42857,4.10714 -4.66633,1.48861 -11.66918,3.68483 -16.60714,4.64286 -4.93796,0.95803 -8.17234,1.69877 -12.85715,1.42857 -4.6848,-0.27019 -10.54872,-1.39327 -14.46428,-3.39285 -3.91556,-1.99959 -7.56557,-4.5593 -9.10715,-6.96429 -1.54157,-2.40499 -1.25,-5.53571 -1.25,-5.53571 z"
       id="path1045"
       inkscape:connector-curvature="0"
       sodipodi:nodetypes="czzzzzzczzzzzzc" />
    <g
       id="g1265"
       transform="matrix(0.54731204,0,0,0.54731204,-99.70735,83.50308)">
      <rect
         ry="112.34689"
         rx="114.23192"
         y="87.83522"
         x="206.06366"
         height="299.01492"
         width="299.01489"
         id="rect1171"
         style="fill:#f1cd75;fill-opacity:1;stroke:none;stroke-width:0.985091;stroke-linecap:round;stroke-linejoin:round;stroke-opacity:1" />
      <g
         transform="translate(157.25428,-129.32236)"
         id="g1109">
        <path
           inkscape:connector-curvature="0"
           id="path151-9"
           style="fill:#f8f4e3;fill-opacity:1;stroke:none;stroke-width:1.7302;stroke-linecap:round;stroke-linejoin:round;stroke-opacity:1"
           d="m 197.4043,272.79102 c -0.4529,0.20557 -0.91562,0.34504 -1.36328,0.57812 -4.18198,2.17739 -12.18807,5.09499 -20.84375,13.4668 0.0523,-0.5176 0.14311,-1.09451 0.20117,-1.62891 l -12.54102,17.65039 -11.70508,-16.22265 c 0.0214,0.0643 0.0529,0.13717 0.0742,0.20117 -4.07602,-4.99423 -8.76486,-9.38985 -15.22461,-12.43555 l 1.14063,0.95703 c 0,0 -1.09291,0.17801 -2.91211,0.61328 -1.8192,0.43527 -4.36384,1.12751 -7.26563,2.1543 -2.90178,1.02679 -6.16043,2.38756 -9.4082,4.16211 -1.62388,0.88728 -3.24609,1.87891 -4.81836,2.98242 -1.57226,1.10352 -3.09486,2.31892 -4.52344,3.6582 -1.42857,1.33929 -2.67968,2.81836 -3.77343,4.38086 -1.09375,1.5625 -2.03042,3.20871 -2.83399,4.88282 -0.80357,1.6741 -1.47321,3.37667 -2.031248,5.05078 -0.558036,1.6741 -1.004185,3.32031 -1.361328,4.88281 -0.714286,3.125 -1.071429,5.9149 -1.25,7.92383 -0.116497,1.31059 -0.103111,1.5897 -0.117188,2.11133 5.493944,13.55158 16.277174,23.41446 29.912114,27.51757 -5.40764,8.5386 -3.57906,20.11055 0.96484,24.95313 6.73362,7.17625 15.80548,7.65542 21.34766,4.74805 8.86168,-4.24037 13.91015,-21.98438 13.91015,-21.98438 0,0 6.28534,14.41124 12.40039,20.11328 9.3524,5.03969 21.913,3.99208 26.73047,-1.75195 7.34305,-8.75537 3.36185,-20.23028 -1.02148,-27.4707 13.21455,-5.85527 24.41052,-7.84343 30.98047,-31.58008 -0.0488,-0.12446 -1.40407,-3.59689 -3.99219,-8.59766 -1.31697,-2.54464 -2.93443,-5.44587 -4.82617,-8.42578 -1.89175,-2.97991 -4.05804,-6.03934 -6.46875,-8.89648 -1.20536,-1.42858 -2.44434,-2.69532 -3.68946,-3.81836 -1.24511,-1.12305 -2.49609,-2.10129 -3.72656,-2.95508 -2.46094,-1.70759 -4.83817,-2.91351 -6.91406,-3.76172 -2.07589,-0.84821 -3.84989,-1.34012 -5.10547,-1.61914 -1.25558,-0.27902 -1.99219,-0.3457 -1.99219,-0.3457 z" />
        <path
           inkscape:connector-curvature="0"
           id="path1090"
           style="fill:#1a1a1a;fill-opacity:1;stroke:none;stroke-width:1.7302;stroke-linecap:round;stroke-linejoin:round;stroke-opacity:1"
           d="m 197.4043,272.79102 -2.04688,1.49414 c 0,0 0.73661,0.0667 1.99219,0.3457 1.25558,0.27902 3.02958,0.77093 5.10547,1.61914 2.07589,0.84821 4.45312,2.05413 6.91406,3.76172 1.23047,0.85379 2.48145,1.83203 3.72656,2.95508 1.24512,1.12304 2.4841,2.38978 3.68946,3.81836 2.41071,2.85714 4.577,5.91657 6.46875,8.89648 1.89174,2.97991 3.5092,5.88114 4.82617,8.42578 2.58812,5.00077 3.94342,8.4732 3.99219,8.59766 0.3166,-1.14387 0.67809,-2.07911 0.97265,-3.32813 2.65276,-11.24854 -1.34641,-24.40361 -8.16992,-32.4375 -5.51678,-6.49538 -17.09424,-8.85841 -27.4707,-4.14843 z" />
        <path
           inkscape:connector-curvature="0"
           id="path1085"
           style="fill:#1a1a1a;fill-opacity:1;stroke:none;stroke-width:1.7302;stroke-linecap:round;stroke-linejoin:round;stroke-opacity:1"
           d="m 96.847656,318.16016 c 0.01408,-0.52163 6.91e-4,-0.80074 0.117188,-2.11133 0.178571,-2.00893 0.535714,-4.79883 1.25,-7.92383 0.357143,-1.5625 0.803292,-3.20871 1.361328,-4.88281 0.558038,-1.67411 1.227678,-3.37668 2.031248,-5.05078 0.80357,-1.67411 1.74024,-3.32032 2.83399,-4.88282 1.09375,-1.5625 2.34486,-3.04157 3.77343,-4.38086 1.42858,-1.33928 2.95118,-2.55468 4.52344,-3.6582 1.57227,-1.10351 3.19448,-2.09514 4.81836,-2.98242 3.24777,-1.77455 6.50642,-3.13532 9.4082,-4.16211 2.90179,-1.02679 5.44643,-1.71903 7.26563,-2.1543 1.8192,-0.43527 2.91211,-0.61328 2.91211,-0.61328 l -1.14063,-0.95703 c -1.3024,-0.61407 -2.56605,-1.25857 -4.0332,-1.74805 -7.06872,-2.36077 -22.44867,-3.47745 -29.55664,4.07227 -9.406457,9.99107 -9.425399,30.5981 -6.658204,38.74023 0.316509,0.93129 0.729305,1.79636 1.09375,2.69532 z" />
        <path
           sodipodi:nodetypes="cccszzcsccc"
           inkscape:connector-curvature="0"
           id="path1080"
           style="fill:#1a1a1a;fill-opacity:1;stroke:none;stroke-width:1.7302;stroke-linecap:round;stroke-linejoin:round;stroke-opacity:1"
           d="m 151.15234,286.63477 11.70508,16.22265 12.54102,-17.65039 c 0.80705,-7.42907 5.49992,-15.47172 10.1291,-19.24453 4.29644,-3.50162 13.94782,-0.66568 14.67949,-6.40781 0.73167,-5.74213 -13.55448,-6.45806 -21.27539,-1.5586 -7.72091,4.89946 -13.96223,20.76522 -16.28594,32.10919 -2.34115,-10.77083 -10.63779,-29.22997 -17.89277,-33.93086 -3.8954,-2.52404 -19.9384,-5.13155 -19.95605,3.06777 3.77227,6.46179 9.14144,2.64916 15.94335,8.58593 5.92158,4.1153 8.21947,12.20757 10.41211,18.80665 z" />
        <ellipse
           style="fill:#1a1a1a;fill-opacity:1;stroke:none;stroke-linecap:round;stroke-linejoin:round;stroke-opacity:1"
           id="path1093"
           cx="124.82143"
           cy="305"
           rx="8.0357141"
           ry="8.5714283" />
        <ellipse
           style="fill:#1a1a1a;fill-opacity:1;stroke:none;stroke-linecap:round;stroke-linejoin:round;stroke-opacity:1"
           id="path1095"
           cx="132.32143"
           cy="328.21429"
           rx="5.8928571"
           ry="6.0714288" />
        <ellipse
           style="fill:#1a1a1a;fill-opacity:1;stroke:none;stroke-linecap:round;stroke-linejoin:round;stroke-opacity:1"
           id="path1097"
           cx="201.78572"
           cy="303.03571"
           rx="8.2142859"
           ry="8.75" />
        <circle
           style="fill:#1a1a1a;fill-opacity:1;stroke:none;stroke-linecap:round;stroke-linejoin:round;stroke-opacity:1"
           id="path1099"
           cx="194.64285"
           cy="327.5"
           r="6.0714288" />
      </g>
      <g
         transform="translate(154.55334,-127.27922)"
         id="g1169">
        <path
           style="fill:#5caeb4;fill-opacity:1;stroke:none;stroke-width:1px;stroke-linecap:butt;stroke-linejoin:miter;stroke-opacity:1"
           d="m 206.32366,370.72598 c 0,0 21.71828,-4.04061 35.60787,-4.29314 13.8896,-0.25254 20.45559,4.29314 24.74874,9.84898 4.29315,5.55584 6.56599,14.89975 -2.77792,21.21321 -9.34391,6.31345 -57.57869,-26.76905 -57.57869,-26.76905 z"
           id="path1126"
           inkscape:connector-curvature="0" />
        <path
           style="fill:#5caeb4;fill-opacity:1;stroke:none;stroke-width:1px;stroke-linecap:butt;stroke-linejoin:miter;stroke-opacity:1"
           d="m 213.8998,462.64987 c 0,0 17.42513,6.06091 29.7995,3.53553 12.37437,-2.52538 20.70813,-4.79822 25.25382,-10.6066 4.54568,-5.80838 7.07106,-12.87945 -4.04061,-16.66752 -11.11168,-3.78807 -51.01271,23.73859 -51.01271,23.73859 z"
           id="path1128"
           inkscape:connector-curvature="0"
           sodipodi:nodetypes="csssc" />
        <path
           sodipodi:nodetypes="cccccsccsccccccsc"
           inkscape:connector-curvature="0"
           d="m 198.31801,370.08574 c -25.54612,0.50508 -47.26635,8.75725 -64.73746,36.81578 -2.17474,3.44131 -1.64114,10.51242 -1.08247,12.90695 12.60756,52.31422 99.86588,58.40087 134.25095,14.50541 l -0.0277,0.12824 c 2.15357,-3.9211 5.15518,-3.21037 7.30303,-1.61914 16.60265,12.30004 30.33558,14.42056 33.88778,12.26362 4.68359,-3.21818 8.28073,-9.29558 5.11312,-14.28712 -3.64995,-5.99736 -6.67831,-5.64318 -7.13801,-12.29796 -0.43269,-6.26359 1.59232,-7.57909 5.27838,-12.66129 2.39717,-2.38043 5.65558,-15.81116 -5.34855,-16.47755 -15.75767,1.5429 -23.49577,9.36353 -34.03717,15.27819 -4.06762,4.66027 -6.82353,-1.04458 -6.82353,-1.04458 -16.68969,-21.85785 -33.64779,-33.00547 -66.63837,-33.51055 z m -36.29807,23.34563 c 14.07407,-0.50008 15.86897,27.13865 -0.33635,27.14357 -15.59731,0.006 -15.96288,-26.56445 0.33635,-27.14357 z"
           style="fill:#503b30;fill-opacity:1;stroke:none;stroke-width:3.07535;stroke-linecap:round;stroke-linejoin:round;stroke-opacity:1"
           id="path990-5" />
        <path
           style="fill:#5caeb4;fill-opacity:1;stroke:none;stroke-width:1px;stroke-linecap:butt;stroke-linejoin:miter;stroke-opacity:1"
           d="m 182.83761,426.03184 c 6.50601,-5.26018 21.46574,-17.42513 28.03173,-4.79823 6.566,12.62691 -7.82868,28.03174 -11.61675,29.54696 -3.78807,1.51523 -21.71828,3.53554 -24.4962,-4.54568 -0.50508,-5.80838 5.11074,-1.55835 8.08122,-20.20305 z"
           id="path1130"
           inkscape:connector-curvature="0"
           sodipodi:nodetypes="csccc" />
      </g>
    </g>
    <g
       id="g1495"
       transform="matrix(0.19885129,0,0,0.19885129,282.9288,185.97959)">
      <g
         transform="translate(105,-9.2857143)"
         id="g1471">
        <path
           sodipodi:nodetypes="sssssscccss"
           inkscape:connector-curvature="0"
           id="path1477"
           d="m 370.32281,195.74705 c -5.07796,7.0169 -15.40456,11.73229 -22.54232,16.3506 -5.12148,3.31372 -5.98825,4.83748 -7.98105,23.85232 -2.04106,19.47534 -4.32236,22.94114 -8.00104,22.85069 -4.46189,-0.10971 -5.71179,-3.72911 -8.10615,-24.10456 -2.21723,-18.86807 -6.11867,-18.61188 -10.6852,-20.60511 -11.67113,-5.0943 -14.32795,-7.50287 -25.03512,-19.48914 -4.07205,-8.03618 -7.9429,-22.96165 -4.45027,-23.32985 6.70113,-0.004 73.67856,0.13477 92.7589,0.065 4.54817,0.14679 -0.26352,16.54157 -5.95775,24.41006 z"
           style="fill:url(#linearGradient1497);fill-opacity:1" />
        <path
           sodipodi:nodetypes="cssscssscc"
           inkscape:connector-curvature="0"
           id="path1475"
           d="m 377.68647,157.71846 c -3.76985,3.18265 -7.95725,5.27749 -13.55926,7.68538 -9.32896,4.00983 -21.71199,5.99017 -33.59135,6.00141 -9.59953,0.009 -21.39447,-1.17234 -30.86702,-5.04031 -6.92753,-2.82875 -12.38865,-5.10115 -17.02268,-8.67678 -1.00015,-1.61558 -1.129,-1.94041 -0.94689,-3.61405 0.17122,-1.57359 1.21647,-5.39492 3.58563,-9.3994 21.11717,-35.69345 69.6583,-35.4821 89.53091,-0.2524 2.49717,4.42692 4.4883,8.29295 3.62827,11.78088 z"
           style="fill:#ff605e;fill-opacity:1" />
        <path
           sodipodi:nodetypes="csscsssssccc"
           inkscape:connector-curvature="0"
           id="path1473"
           d="m 377.80766,171.4731 c -7.88326,6.52265 -17.90355,10.33417 -26.73211,13.00654 -14.21452,4.30268 -28.3566,2.21928 -40.3622,0.008 -9.1628,-1.68746 -19.76782,-7.75255 -27.57752,-13.09232 -2.27025,0.13363 -2.88804,-3.97109 -2.74716,-6.78328 0.13705,-2.73583 0.45748,-7.5221 2.60395,-6.82581 5.92286,1.92129 10.99061,5.36876 18.23099,7.38029 8.60081,2.38949 19.42814,4.66342 29.31215,4.6662 10.18177,0.003 22.03277,-2.38774 31.30082,-4.93941 6.43129,-1.77066 11.42045,-5.41778 15.51268,-7.21808 2.68719,-0.221 3.60206,13.06754 0.4584,13.7976 z"
           style="fill:#666784;fill-opacity:1" />
      </g>
    </g>
    <path
       style="fill:#ffffff;stroke:none;stroke-width:0.496428px;stroke-linecap:butt;stroke-linejoin:miter;stroke-opacity:1"
       d="m 372.09849,207.80148 34.92549,-4.20061 3.52975,-0.13696 -34.19277,6.34344 z"
       id="path1517"
       inkscape:connector-curvature="0"
       sodipodi:nodetypes="ccccc" />
    <path
       style="fill:#ffffff;stroke:none;stroke-width:0.496428px;stroke-linecap:butt;stroke-linejoin:miter;stroke-opacity:1"
       d="m 368.31763,221.71993 4.00994,-0.24713 2.76529,-1.00294 37.22629,13.87303 -2.53398,0.47973 z"
       id="path1519"
       inkscape:connector-curvature="0"
       sodipodi:nodetypes="cccccc" />
    <path
       style="fill:#ffffff;stroke:none;stroke-width:0.534058px;stroke-linecap:butt;stroke-linejoin:miter;stroke-opacity:1"
       d="m 383.01298,209.44529 c 0,0 1.41326,0.85686 2.9818,3.08675 0.43668,0.62079 0.91729,0.91502 0.91729,2.6597 0,1.74469 -0.4395,2.67739 -1.59497,3.91641 -1.4304,1.53384 -3.25288,1.87889 -3.25288,1.87889 0,0 -0.4124,0.0179 0.25847,-0.69385 0.67087,-0.71174 2.82911,-2.46779 2.87517,-4.88727 0.0479,-2.51711 -2.15638,-4.88725 -2.15638,-4.88725 0,0 -0.44036,-1.00798 -0.0285,-1.07338 z"
       id="path1521"
       inkscape:connector-curvature="0"
       sodipodi:nodetypes="cssscsscc" />
    <path
       id="path1665"
       style="fill:#808080;fill-opacity:1;stroke:none;stroke-width:0.3;stroke-linecap:round;stroke-linejoin:round;stroke-miterlimit:4;stroke-dasharray:none;stroke-opacity:1"
       d="m 114.91183,364.67913 a 22.857143,22.857143 0 0 0 -22.73242,22.85743 22.857143,22.857143 0 0 0 22.85546,22.85546 22.857143,22.857143 0 0 0 22.85743,-22.85546 22.857143,22.857143 0 0 0 -22.85743,-22.85743 22.857143,22.857143 0 0 0 -0.12304,0 z m -9.57227,6.67188 4.19727,1.60742 c 0,0 3.94859,-0.58189 5.80273,-0.58789 1.85414,-0.006 5.26953,0.5 5.26953,0.5 l 4.19532,-1.51953 -0.53516,5.44726 c 0,0 2.73978,6.54145 2.76758,10 0.0368,4.578 -0.10379,7.14539 -1.78516,9.28516 -1.68137,2.13977 -3.85708,2.30785 -6.25,2.85742 -0.16964,0.0389 -0.3615,0.0593 -0.53711,0.0937 v 1.51367 c 0,0 1.32603,0.10832 1.69727,0.40235 0.37124,0.29403 0.49023,0.98242 0.49023,0.98242 -0.0162,0.86343 -0.71645,0.80473 -0.98047,0.80273 -0.26402,-0.002 -0.39345,-1.08264 -0.75976,-1.02734 -0.3663,0.0553 -0.3125,0.89258 -0.3125,0.89258 0,0 0.0228,0.66255 -0.26758,0.89453 -0.29036,0.23198 -1.00403,0.32319 -1.29492,0.0879 -0.29089,-0.23526 -0.13477,-0.9375 -0.13477,-0.9375 0,0 0.16375,-0.65636 -0.17773,-0.75781 -0.34148,-0.10145 -0.55235,0.8869 -0.98242,0.9375 -0.25676,0.0302 -0.54131,-0.0781 -0.75977,-0.24024 -0.1967,0.10874 -0.42808,0.17274 -0.63477,0.14844 -0.43007,-0.0506 -0.64094,-1.03895 -0.98242,-0.9375 -0.34147,0.10145 -0.17773,0.75977 -0.17773,0.75977 0,0 0.15612,0.70224 -0.13477,0.9375 -0.29088,0.23534 -1.00261,0.14212 -1.29297,-0.0899 -0.29034,-0.23198 -0.26953,-0.89257 -0.26953,-0.89257 0,0 0.0538,-0.83728 -0.3125,-0.89258 -0.36631,-0.0553 -0.49379,1.02339 -0.75781,1.02539 -0.26402,0.002 -0.96622,0.0607 -0.98242,-0.80274 0,0 0.11899,-0.68839 0.49023,-0.98242 0.37125,-0.29403 1.69727,-0.40234 1.69727,-0.40234 v -1.25781 c -0.16044,-0.0263 -0.32459,-0.0469 -0.48047,-0.0781 -2.43397,-0.48769 -4.73629,-0.68079 -6.42969,-2.85742 -1.69336,-2.17663 -1.81973,-5.1905 -1.60547,-9.375 0.21426,-4.1845 3.03516,-9.82227 3.03516,-9.82227 z m 15.35742,5.98242 a 2.2767856,2.0982144 0 0 0 -2.27539,2.09961 2.2767856,2.0982144 0 0 0 2.27539,2.09766 2.2767856,2.0982144 0 0 0 2.27735,-2.09766 2.2767856,2.0982144 0 0 0 -2.27735,-2.09961 z m -11.20507,0.0449 a 2.2767856,2.0982144 0 0 0 -2.27735,2.09766 2.2767856,2.0982144 0 0 0 2.27735,2.09961 2.2767856,2.0982144 0 0 0 2.27734,-2.09961 2.2767856,2.0982144 0 0 0 -2.27734,-2.09766 z m 5.66992,0.44727 -2.5,2.8125 2.41015,1.78515 2.5,-1.65234 z m -2.05274,11.02539 2.05274,2.76953 2.23242,-2.67969 z m 5.61719,0.0918 2.05469,2.76757 2.23242,-2.67773 z m -11.11523,0.0449 2.05273,2.76758 2.23242,-2.67774 z m 8.39257,3.57031 2.05469,2.76953 2.23047,-2.67969 z m -5.71484,0.0898 2.05469,2.76758 2.23242,-2.67773 z m 6.5625,6.64063 c -1.18693,0.1306 -2.4266,0.17095 -3.61914,0.0937 l -0.0449,1.11914 c 0,2e-5 1.39227,0.33375 1.74023,0.71484 0.0666,0.073 0.10091,0.11473 0.15821,0.17383 0.0301,-0.0315 0.0441,-0.0489 0.0762,-0.084 0.34796,-0.38109 1.74023,-0.71289 1.74023,-0.71289 z"
       inkscape:connector-curvature="0" />
    <path
       d="m 52.87512,371.88648 0.80469,5.71485 c 0,0 -2.82089,5.63776 -3.03515,9.82226 -0.21426,4.1845 -0.0879,7.19837 1.60546,9.375 1.6934,2.17663 3.99572,2.36974 6.42969,2.85743 0.15588,0.0312 0.32003,0.0518 0.48047,0.0781 v 1.25781 c 0,0 -1.32602,0.10832 -1.69727,0.40235 -0.37124,0.29403 -0.49023,0.98242 -0.49023,0.98242 0.0162,0.86343 0.7184,0.80517 0.98242,0.80273 0.26402,-0.002 0.3915,-1.08072 0.75781,-1.02539 0.36631,0.0553 0.3125,0.89258 0.3125,0.89258 0,0 -0.0208,0.6606 0.26954,0.89258 0.29036,0.23197 1.00208,0.32514 1.29296,0.0898 0.29089,-0.23526 0.13477,-0.9375 0.13477,-0.9375 0,0 -0.16374,-0.65831 0.17773,-0.75976 0.34148,-0.10145 0.55236,0.88694 0.98243,0.9375 0.20669,0.0243 0.43806,-0.0397 0.63476,-0.14844 0.21846,0.16215 0.50301,0.27044 0.75977,0.24023 0.43007,-0.0506 0.64094,-1.03895 0.98242,-0.9375 0.34148,0.10145 0.17773,0.75782 0.17773,0.75782 0,0 -0.15612,0.70224 0.13477,0.9375 0.29089,0.2353 1.00456,0.14408 1.29492,-0.0879 0.29036,-0.23198 0.26758,-0.89454 0.26758,-0.89454 0,0 -0.0538,-0.83727 0.3125,-0.89257 0.36631,-0.0553 0.49575,1.02534 0.75977,1.02734 0.26402,0.002 0.96426,0.0607 0.98046,-0.80273 0,0 -0.11899,-0.6884 -0.49023,-0.98243 -0.37124,-0.29403 -1.69727,-0.40234 -1.69727,-0.40234 v -1.51367 c 0.17561,-0.0345 0.36747,-0.0548 0.53711,-0.0937 2.39292,-0.54957 4.56863,-0.71765 6.25,-2.85742 1.68137,-2.13977 1.82196,-4.70716 1.78516,-9.28516 -0.0278,-3.45855 -2.76758,-10 -2.76758,-10 l 0.53516,-5.44727 -4.19531,1.51954 c 0,0 -3.4154,-0.506 -5.26954,-0.5 -1.85414,0.006 -5.80273,0.58789 -5.80273,0.58789 z m 15.35743,5.98243 a 2.2767856,2.0982144 0 0 1 2.27734,2.09961 2.2767856,2.0982144 0 0 1 -2.27734,2.09765 2.2767856,2.0982144 0 0 1 -2.27539,-2.09765 2.2767856,2.0982144 0 0 1 2.27539,-2.09961 z m -11.20508,0.0449 a 2.2767856,2.0982144 0 0 1 2.27734,2.09765 2.2767856,2.0982144 0 0 1 -2.27734,2.09961 2.2767856,2.0982144 0 0 1 -2.27735,-2.09961 2.2767856,2.0982144 0 0 1 2.27735,-2.09765 z m 5.66992,0.44726 2.41016,2.94532 -2.5,1.65234 -2.41016,-1.78516 z m -2.05273,11.02539 4.28515,0.0898 -2.23242,2.67969 z m 5.61718,0.0918 4.28711,0.0898 -2.23242,2.67773 z m -11.11523,0.0449 4.28516,0.0899 -2.23243,2.67773 z m 8.39258,3.57032 4.28515,0.0898 -2.23047,2.67969 z m -5.71485,0.0898 4.28711,0.0898 -2.23242,2.67774 z m 6.5625,6.64062 0.0508,1.30469 c 0,0 -1.39227,0.3318 -1.74023,0.71289 -0.0321,0.0351 -0.0461,0.0525 -0.0762,0.084 -0.0573,-0.0591 -0.0916,-0.10087 -0.15821,-0.17383 -0.34796,-0.38109 -1.74023,-0.71483 -1.74023,-0.71485 l 0.0449,-1.11914 c 1.19254,0.0772 2.43221,0.0369 3.61914,-0.0937 z"
       style="fill:#4d4d4d;fill-opacity:1;stroke:none;stroke-width:0.3;stroke-linecap:butt;stroke-linejoin:miter;stroke-miterlimit:4;stroke-dasharray:none;stroke-opacity:1"
       id="path1567-7"
       inkscape:connector-curvature="0" />
    <g
       transform="matrix(1.3054279,0,0,1.3054279,-70.406263,-104.09761)"
       id="g3661">
      <rect
         style="fill:#fffcce;fill-opacity:1;stroke:none;stroke-width:0.153741;stroke-linecap:round;stroke-linejoin:round"
         id="rect3646"
         width="91.923882"
         height="91.923882"
         x="230.5168"
         y="340.82547" />
      <path
         sodipodi:nodetypes="ccccccc"
         style="fill:#000000;fill-opacity:1;stroke:none;stroke-width:0.4042px;stroke-linecap:butt;stroke-linejoin:miter;stroke-opacity:1"
         d="m 252.5387,353.19984 8.293,-1.06066 h 36.9325 l 3.81504,1.06066 -4.04609,1.06066 -38.14552,0.35356 z"
         id="path3040"
         inkscape:connector-curvature="0" />
      <path
         sodipodi:nodetypes="ccccccc"
         style="fill:#000000;fill-opacity:1;stroke:none;stroke-width:0.4042px;stroke-linecap:butt;stroke-linejoin:miter;stroke-opacity:1"
         d="m 252.19212,418.96077 6.73341,-0.70711 36.07847,-0.51559 6.34419,0.86915 -1.78753,0.86915 -41.73262,0.89861 z"
         id="path3603"
         inkscape:connector-curvature="0" />
      <path
         sodipodi:nodetypes="ccccccc"
         style="fill:#000000;fill-opacity:1;stroke:none;stroke-width:0.4042px;stroke-linecap:butt;stroke-linejoin:miter;stroke-opacity:1"
         d="m 247.42264,349.11924 5.69369,0.89862 h 47.94305 l 6.9978,-0.70711 -7.11332,-1.06066 h -47.71201 z"
         id="path3605"
         inkscape:connector-curvature="0" />
      <path
         sodipodi:nodetypes="ccccccc"
         style="fill:#000000;fill-opacity:1;stroke:none;stroke-width:0.4042px;stroke-linecap:butt;stroke-linejoin:miter;stroke-opacity:1"
         d="m 247.32533,423.04137 5.61771,-0.54507 45.48679,-0.35355 8.28369,1.06066 -8.34145,1.41421 -44.73588,1e-5 z"
         id="path3607"
         inkscape:connector-curvature="0" />
      <path
         style="fill:#000000;fill-opacity:1;stroke:none;stroke-width:1px;stroke-linecap:butt;stroke-linejoin:miter;stroke-opacity:1"
         d="m 300.69715,353.02306 3.35876,-0.53033 c 0,0 0.37203,2.78853 1.06066,3.88909 0.68863,1.10056 1.58134,1.77949 2.82843,2.47487 1.24709,0.69538 4.59619,1.41422 4.59619,1.41422 0,0 -3.86193,0.74348 -5.65685,0 -1.79492,-0.74348 -2.92191,-3.09605 -3.53554,-4.24264 -0.61363,-1.14659 -0.53033,-2.12132 -0.53033,-2.12132 z"
         id="path3609"
         inkscape:connector-curvature="0"
         sodipodi:nodetypes="cczzczzcc" />
      <path
         style="fill:#000000;fill-opacity:1;stroke:none;stroke-width:1px;stroke-linecap:butt;stroke-linejoin:miter;stroke-opacity:1"
         d="m 312.71797,364.51355 -1.06066,2.82843 -0.17678,36.76955 1.41421,4.24264 0.35356,-41.36575 z"
         id="path3611"
         inkscape:connector-curvature="0" />
      <path
         sodipodi:nodetypes="cczzczzcc"
         inkscape:connector-curvature="0"
         id="path3609-7"
         d="m 312.35286,407.55868 0.53033,3.35876 c 0,0 -2.78853,0.37203 -3.88909,1.06066 -1.10056,0.68863 -1.77949,1.58134 -2.47487,2.82843 -0.69538,1.24709 -1.41422,4.59619 -1.41422,4.59619 0,0 -0.74348,-3.86193 0,-5.65685 0.74348,-1.79492 3.09605,-2.92191 4.24264,-3.53554 1.14659,-0.61363 2.12132,-0.53033 2.12132,-0.53033 z"
         style="fill:#000000;fill-opacity:1;stroke:none;stroke-width:1px;stroke-linecap:butt;stroke-linejoin:miter;stroke-opacity:1" />
      <path
         style="fill:#000000;fill-opacity:1;stroke:none;stroke-width:1px;stroke-linecap:butt;stroke-linejoin:miter;stroke-opacity:1"
         d="m 316.78383,353.55339 -0.70711,15.02602 -0.53033,41.36575 1.94455,6.36396 0.88388,-6.36396 -0.70711,-49.3207 z"
         id="path3628"
         inkscape:connector-curvature="0" />
      <path
         style="fill:#000000;fill-opacity:1;stroke:none;stroke-width:1px;stroke-linecap:butt;stroke-linejoin:miter;stroke-opacity:1"
         d="m 236.88078,351.43207 -0.88389,23.68808 -1.23743,26.87006 1.23743,13.43503 1.41422,-10.6066 0.17677,-40.83542 z"
         id="path3630"
         inkscape:connector-curvature="0" />
      <path
         style="fill:#000000;fill-opacity:1;stroke:none;stroke-width:1px;stroke-linecap:butt;stroke-linejoin:miter;stroke-opacity:1"
         d="m 240.23953,361.33157 -0.35355,45.07806 0.17678,3.0052 1.41421,-7.77818 0.35355,-29.69848 -0.35355,-7.24784 z"
         id="path3632"
         inkscape:connector-curvature="0" />
      <path
         sodipodi:nodetypes="cczzczzcc"
         inkscape:connector-curvature="0"
         id="path3609-4"
         d="m 254.82361,353.03462 -3.35876,-0.53033 c 0,0 -0.37203,2.78853 -1.06066,3.88909 -0.68863,1.10056 -1.58134,1.77949 -2.82843,2.47487 -1.24709,0.69538 -4.59619,1.41422 -4.59619,1.41422 0,0 3.86193,0.74348 5.65685,0 1.79492,-0.74348 2.92191,-3.09605 3.53554,-4.24264 0.61363,-1.14659 0.53033,-2.12132 0.53033,-2.12132 z"
         style="fill:#000000;fill-opacity:1;stroke:none;stroke-width:1px;stroke-linecap:butt;stroke-linejoin:miter;stroke-opacity:1" />
      <path
         sodipodi:nodetypes="cczzczzcc"
         inkscape:connector-curvature="0"
         id="path3609-2"
         d="m 241.13497,407.73545 -0.53033,3.35876 c 0,0 2.78853,0.37203 3.88909,1.06066 1.10056,0.68863 1.77949,1.58134 2.47487,2.82843 0.69538,1.24709 1.41422,4.59619 1.41422,4.59619 0,0 0.74348,-3.86193 0,-5.65685 -0.74348,-1.79492 -3.09605,-2.92191 -4.24264,-3.53554 -1.14659,-0.61363 -2.12132,-0.53033 -2.12132,-0.53033 z"
         style="fill:#000000;fill-opacity:1;stroke:none;stroke-width:1px;stroke-linecap:butt;stroke-linejoin:miter;stroke-opacity:1" />
    </g>
  </g>
</svg>
